<svg width="14" height="13" viewBox="0 0 14 13" fill="none" xmlns="http://www.w3.org/2000/svg">
<path d="M9.78542 2.01981L11.9778 4.21219C12.0701 4.30456 12.0701 4.45525 11.9778 4.54761L6.66944 9.856L4.41389 10.1063C4.1125 10.1404 3.85729 9.88517 3.89132 9.58377L4.14167 7.3282L9.45 2.01981C9.54236 1.92745 9.69306 1.92745 9.78542 2.01981ZM13.7229 1.46321L12.5368 0.277086C12.1674 -0.092362 11.567 -0.092362 11.1951 0.277086L10.3347 1.13751C10.2424 1.22987 10.2424 1.38057 10.3347 1.47293L12.5271 3.66531C12.6194 3.75768 12.7701 3.75768 12.8625 3.66531L13.7229 2.80489C14.0924 2.43301 14.0924 1.83266 13.7229 1.46321ZM9.33333 8.41224V10.8866H1.55556V3.10871H7.14097C7.21875 3.10871 7.29167 3.07711 7.34757 3.02364L8.31979 2.05141C8.50451 1.86669 8.37326 1.55314 8.11319 1.55314H1.16667C0.522569 1.55314 0 2.07571 0 2.71982V11.2755C0 11.9196 0.522569 12.4421 1.16667 12.4421H9.72222C10.3663 12.4421 10.8889 11.9196 10.8889 11.2755V7.44C10.8889 7.17993 10.5753 7.05111 10.3906 7.2334L9.4184 8.20564C9.36493 8.26154 9.33333 8.33446 9.33333 8.41224Z" fill="#FFCA19"/>
</svg>
