<svg width="46" height="19" viewBox="0 0 46 19" fill="none" xmlns="http://www.w3.org/2000/svg">
<path d="M8.22323 2.42197C7.69589 3.04775 6.85214 3.53994 6.00839 3.46963C5.90292 2.62588 6.31776 1.72588 6.80292 1.17744C7.33026 0.537598 8.25136 0.0805664 9.0037 0.0454102C9.08808 0.917285 8.74354 1.78213 8.22323 2.42197ZM8.98964 3.63135C7.7662 3.56104 6.71854 4.32744 6.14198 4.32744C5.55136 4.32744 4.66542 3.6665 3.69511 3.6876C2.43651 3.70869 1.26933 4.41885 0.629482 5.55088C-0.692393 7.82197 0.284951 11.1759 1.56464 13.0251C2.19042 13.9392 2.93573 14.9446 3.92011 14.9095C4.85526 14.8743 5.22089 14.3048 6.34589 14.3048C7.47792 14.3048 7.80839 14.9095 8.79276 14.8954C9.81229 14.8743 10.4521 13.9813 11.0779 13.0673C11.7881 12.0267 12.0834 11.0212 12.0975 10.9649C12.0764 10.9438 10.1287 10.1985 10.1076 7.94854C10.0865 6.06416 11.6475 5.17119 11.7178 5.11494C10.8389 3.80713 9.46776 3.6665 8.98964 3.63135ZM16.049 1.08604V14.7899H18.1795V10.1071H21.1256C23.8185 10.1071 25.7029 8.25791 25.7029 5.58604C25.7029 2.91416 23.8467 1.08604 21.1959 1.08604H16.049ZM18.1795 2.879H20.6334C22.4826 2.879 23.5373 3.86338 23.5373 5.59307C23.5373 7.32275 22.4826 8.32119 20.6264 8.32119H18.1795V2.879ZM29.5842 14.8954C30.9201 14.8954 32.1576 14.2204 32.7201 13.1446H32.7623V14.7899H34.731V7.96963C34.731 5.99385 33.149 4.71416 30.7162 4.71416C28.4592 4.71416 26.7857 6.00791 26.7225 7.77979H28.642C28.8037 6.93604 29.5842 6.38057 30.6529 6.38057C31.9537 6.38057 32.685 6.98525 32.685 8.10322V8.8626L30.0271 9.02432C27.5592 9.17197 26.2232 10.1845 26.2232 11.9423C26.2303 13.7142 27.6084 14.8954 29.5842 14.8954ZM30.1607 13.2712C29.0287 13.2712 28.3045 12.7228 28.3045 11.8931C28.3045 11.0282 29.0006 10.529 30.3295 10.4517L32.692 10.304V11.0774C32.692 12.3571 31.6021 13.2712 30.1607 13.2712ZM37.3678 18.5165C39.442 18.5165 40.4193 17.722 41.2701 15.3243L45.0037 4.84775H42.8381L40.3349 12.9407H40.2928L37.7896 4.84775H35.5678L39.1678 14.8251L38.9709 15.4298C38.6474 16.4563 38.1201 16.8571 37.1779 16.8571C37.0092 16.8571 36.6857 16.836 36.5521 16.822V18.4673C36.6787 18.4954 37.206 18.5165 37.3678 18.5165Z" fill="#FFCA19"/>
</svg>
