<svg width="42" height="48" viewBox="0 0 42 48" fill="none" xmlns="http://www.w3.org/2000/svg">
<g clip-path="url(#clip0)">
<g filter="url(#filter0_d)">
<path d="M0 43.5C0 45.9844 2.01562 48 4.5 48H37.5C39.9844 48 42 45.9844 42 43.5V18H0V43.5ZM30 25.125C30 24.5063 30.5063 24 31.125 24H34.875C35.4938 24 36 24.5063 36 25.125V28.875C36 29.4937 35.4938 30 34.875 30H31.125C30.5063 30 30 29.4937 30 28.875V25.125ZM30 37.125C30 36.5062 30.5063 36 31.125 36H34.875C35.4938 36 36 36.5062 36 37.125V40.875C36 41.4938 35.4938 42 34.875 42H31.125C30.5063 42 30 41.4938 30 40.875V37.125ZM18 25.125C18 24.5063 18.5063 24 19.125 24H22.875C23.4937 24 24 24.5063 24 25.125V28.875C24 29.4937 23.4937 30 22.875 30H19.125C18.5063 30 18 29.4937 18 28.875V25.125ZM18 37.125C18 36.5062 18.5063 36 19.125 36H22.875C23.4937 36 24 36.5062 24 37.125V40.875C24 41.4938 23.4937 42 22.875 42H19.125C18.5063 42 18 41.4938 18 40.875V37.125ZM6 25.125C6 24.5063 6.50625 24 7.125 24H10.875C11.4937 24 12 24.5063 12 25.125V28.875C12 29.4937 11.4937 30 10.875 30H7.125C6.50625 30 6 29.4937 6 28.875V25.125ZM6 37.125C6 36.5062 6.50625 36 7.125 36H10.875C11.4937 36 12 36.5062 12 37.125V40.875C12 41.4938 11.4937 42 10.875 42H7.125C6.50625 42 6 41.4938 6 40.875V37.125ZM37.5 6H33V1.5C33 0.675 32.325 0 31.5 0H28.5C27.675 0 27 0.675 27 1.5V6H15V1.5C15 0.675 14.325 0 13.5 0H10.5C9.675 0 9 0.675 9 1.5V6H4.5C2.01562 6 0 8.01562 0 10.5V15H42V10.5C42 8.01562 39.9844 6 37.5 6Z" fill="#FFCA19"/>
</g>
</g>
<defs>
<filter id="filter0_d" x="-5" y="-5" width="52" height="58" filterUnits="userSpaceOnUse" color-interpolation-filters="sRGB">
<feFlood flood-opacity="0" result="BackgroundImageFix"/>
<feColorMatrix in="SourceAlpha" type="matrix" values="0 0 0 0 0 0 0 0 0 0 0 0 0 0 0 0 0 0 127 0"/>
<feOffset/>
<feGaussianBlur stdDeviation="2.5"/>
<feColorMatrix type="matrix" values="0 0 0 0 0 0 0 0 0 0 0 0 0 0 0 0 0 0 0.26 0"/>
<feBlend mode="normal" in2="BackgroundImageFix" result="effect1_dropShadow"/>
<feBlend mode="normal" in="SourceGraphic" in2="effect1_dropShadow" result="shape"/>
</filter>
<clipPath id="clip0">
<rect width="42" height="48" fill="white"/>
</clipPath>
</defs>
</svg>
