<svg width="20" height="22" viewBox="0 0 20 22" fill="none" xmlns="http://www.w3.org/2000/svg">
<path d="M0 19.9375C0 21.0762 0.959821 22 2.14286 22H17.8571C19.0402 22 20 21.0762 20 19.9375V8.25H0V19.9375ZM14.2857 11.5156C14.2857 11.232 14.5268 11 14.8214 11H16.6071C16.9018 11 17.1429 11.232 17.1429 11.5156V13.2344C17.1429 13.518 16.9018 13.75 16.6071 13.75H14.8214C14.5268 13.75 14.2857 13.518 14.2857 13.2344V11.5156ZM14.2857 17.0156C14.2857 16.732 14.5268 16.5 14.8214 16.5H16.6071C16.9018 16.5 17.1429 16.732 17.1429 17.0156V18.7344C17.1429 19.018 16.9018 19.25 16.6071 19.25H14.8214C14.5268 19.25 14.2857 19.018 14.2857 18.7344V17.0156ZM8.57143 11.5156C8.57143 11.232 8.8125 11 9.10714 11H10.8929C11.1875 11 11.4286 11.232 11.4286 11.5156V13.2344C11.4286 13.518 11.1875 13.75 10.8929 13.75H9.10714C8.8125 13.75 8.57143 13.518 8.57143 13.2344V11.5156ZM8.57143 17.0156C8.57143 16.732 8.8125 16.5 9.10714 16.5H10.8929C11.1875 16.5 11.4286 16.732 11.4286 17.0156V18.7344C11.4286 19.018 11.1875 19.25 10.8929 19.25H9.10714C8.8125 19.25 8.57143 19.018 8.57143 18.7344V17.0156ZM2.85714 11.5156C2.85714 11.232 3.09821 11 3.39286 11H5.17857C5.47321 11 5.71429 11.232 5.71429 11.5156V13.2344C5.71429 13.518 5.47321 13.75 5.17857 13.75H3.39286C3.09821 13.75 2.85714 13.518 2.85714 13.2344V11.5156ZM2.85714 17.0156C2.85714 16.732 3.09821 16.5 3.39286 16.5H5.17857C5.47321 16.5 5.71429 16.732 5.71429 17.0156V18.7344C5.71429 19.018 5.47321 19.25 5.17857 19.25H3.39286C3.09821 19.25 2.85714 19.018 2.85714 18.7344V17.0156ZM17.8571 2.75H15.7143V0.6875C15.7143 0.309375 15.3929 0 15 0H13.5714C13.1786 0 12.8571 0.309375 12.8571 0.6875V2.75H7.14286V0.6875C7.14286 0.309375 6.82143 0 6.42857 0H5C4.60714 0 4.28571 0.309375 4.28571 0.6875V2.75H2.14286C0.959821 2.75 0 3.67383 0 4.8125V6.875H20V4.8125C20 3.67383 19.0402 2.75 17.8571 2.75Z" fill="#FFCA19"/>
</svg>
