<svg width="15" height="12" viewBox="0 0 15 12" fill="none" xmlns="http://www.w3.org/2000/svg">
<path d="M5.51293 0.279254C5.51293 0.279254 3.43669 0.421916 2.07886 1.51226C2.07249 1.51481 2.06485 1.51863 2.05848 1.52245C1.82284 1.74026 1.64578 2.07781 1.42669 2.56184C1.20761 3.04587 0.975783 3.66874 0.764338 4.36549C0.342722 5.76026 7.96924e-05 7.4722 7.96924e-05 9.08351C-0.00119399 9.14083 0.0128175 9.19687 0.0408401 9.24655C0.517228 10.0834 1.39358 10.5891 2.21133 10.9075C3.02909 11.226 3.78443 11.3534 4.16783 11.3661C4.2761 11.3699 4.37928 11.3202 4.44297 11.2336L5.2378 10.1331C5.8785 10.2847 6.63002 10.3878 7.5 10.3878C8.36998 10.3878 9.1215 10.2847 9.7622 10.1331L10.557 11.2336C10.6207 11.3202 10.7239 11.3699 10.8322 11.3661C11.2156 11.3534 11.9709 11.226 12.7887 10.9075C13.6064 10.5891 14.4828 10.0834 14.9592 9.24655C14.9872 9.19687 15.0012 9.14083 14.9999 9.08351C14.9999 7.4722 14.6573 5.76026 14.2357 4.36549C14.0242 3.66874 13.7924 3.04587 13.5733 2.56184C13.3542 2.07781 13.1772 1.74026 12.9415 1.52245C12.9351 1.51863 12.9275 1.51481 12.9211 1.51226C11.5633 0.421916 9.48707 0.279254 9.48707 0.279254C9.46287 0.276707 9.43994 0.276707 9.41574 0.279254C9.30237 0.294539 9.20684 0.368418 9.16099 0.472866C9.16099 0.472866 9.05017 0.716155 8.97757 1.06389C8.34196 0.961992 7.80698 0.931421 7.5 0.931421C7.19302 0.931421 6.65804 0.961992 6.02243 1.06389C5.94983 0.716155 5.83901 0.472866 5.83901 0.472866C5.78297 0.34549 5.65177 0.26779 5.51293 0.279254ZM5.30913 0.982372C5.33333 1.04861 5.34989 1.11102 5.37027 1.18617C4.63531 1.35686 3.83029 1.63581 3.07749 2.10328C2.95903 2.15296 2.88133 2.2676 2.87751 2.39625C2.87496 2.52363 2.94757 2.64209 3.06221 2.69813C3.17812 2.7529 3.31569 2.73634 3.41377 2.65355C4.92445 1.71733 6.84656 1.58359 7.5 1.58359C8.15344 1.58359 10.0756 1.71733 11.5862 2.65355C11.6843 2.73634 11.8219 2.7529 11.9378 2.69813C12.0524 2.64209 12.125 2.52363 12.1225 2.39625C12.1187 2.2676 12.041 2.15296 11.9225 2.10328C11.1697 1.63581 10.3647 1.35686 9.62973 1.18617C9.65011 1.11102 9.66667 1.04861 9.69087 0.982372C10.0628 1.02823 11.5085 1.22311 12.4932 2.00138C12.5568 2.05998 12.7785 2.38606 12.9823 2.83697C13.1861 3.28788 13.4001 3.87509 13.6039 4.54891C14.0013 5.86343 14.3223 7.48494 14.3376 8.97142C13.9669 9.57136 13.2714 10.0172 12.5543 10.2961C11.9021 10.5496 11.2933 10.663 10.9748 10.6935L10.4246 9.94967C10.7048 9.85923 10.957 9.76115 11.1786 9.66435C12.0015 9.3026 12.4422 8.92047 12.4422 8.92047C12.5772 8.79946 12.5887 8.59184 12.4677 8.45682C12.3467 8.3218 12.139 8.31033 12.004 8.43134C12.004 8.43134 11.6627 8.74341 10.9137 9.07332C10.6386 9.19433 10.3048 9.31406 9.92525 9.41978C9.83736 9.40959 9.74947 9.43507 9.68068 9.49111C9.0731 9.63887 8.35087 9.73568 7.5 9.73568C6.64276 9.73568 5.91926 9.62995 5.30913 9.48092C5.24034 9.43507 5.15627 9.41596 5.07475 9.42997C4.6939 9.32425 4.36272 9.19433 4.08631 9.07332C3.33734 8.74341 2.99597 8.43134 2.99597 8.43134C2.92209 8.36256 2.82019 8.33326 2.72084 8.34982C2.59474 8.36893 2.49029 8.45936 2.4559 8.58292C2.42023 8.7052 2.46099 8.83767 2.5578 8.92047C2.5578 8.92047 2.99852 9.3026 3.82137 9.66435C4.04301 9.76115 4.29521 9.85923 4.57544 9.94967L4.02517 10.6935C3.70673 10.663 3.09787 10.5496 2.44571 10.2961C1.72858 10.0172 1.0331 9.57136 0.662437 8.97142C0.677722 7.48494 0.99871 5.86343 1.39612 4.54891C1.59993 3.87509 1.81392 3.28788 2.01772 2.83697C2.22152 2.38606 2.44316 2.05998 2.50685 2.00138C3.49147 1.22311 4.93719 1.02823 5.30913 0.982372ZM5.38046 4.84442C4.54869 4.84442 3.91308 5.59977 3.91308 6.47484C3.91308 7.34992 4.54869 8.10526 5.38046 8.10526C6.21222 8.10526 6.84783 7.34992 6.84783 6.47484C6.84783 5.59977 6.21222 4.84442 5.38046 4.84442ZM9.61954 4.84442C8.78778 4.84442 8.15217 5.59977 8.15217 6.47484C8.15217 7.34992 8.78778 8.10526 9.61954 8.10526C10.4513 8.10526 11.0869 7.34992 11.0869 6.47484C11.0869 5.59977 10.4513 4.84442 9.61954 4.84442ZM5.38046 5.49659C5.80972 5.49659 6.19567 5.90929 6.19567 6.47484C6.19567 7.04039 5.80972 7.45309 5.38046 7.45309C4.9512 7.45309 4.56525 7.04039 4.56525 6.47484C4.56525 5.90929 4.9512 5.49659 5.38046 5.49659ZM9.61954 5.49659C10.0488 5.49659 10.4348 5.90929 10.4348 6.47484C10.4348 7.04039 10.0488 7.45309 9.61954 7.45309C9.19028 7.45309 8.80433 7.04039 8.80433 6.47484C8.80433 5.90929 9.19028 5.49659 9.61954 5.49659Z" fill="#F9F9F9"/>
</svg>
