<svg width="42" height="48" viewBox="0 0 42 48" fill="none" xmlns="http://www.w3.org/2000/svg">
<g clip-path="url(#clip0)">
<path d="M42 32.25V42.75C42.0007 43.0457 41.9431 43.3386 41.8302 43.6119C41.7174 43.8853 41.5517 44.1336 41.3427 44.3427C41.1336 44.5517 40.8852 44.7174 40.6119 44.8303C40.3386 44.9431 40.0457 45.0008 39.75 45H29.25C27.2447 45 26.2416 42.5719 27.6563 41.1563L31.05 37.7625L21 27.7125L10.9472 37.7719L14.3438 41.1563C15.7584 42.5719 14.7553 45 12.75 45H2.25001C1.95432 45.0008 1.66141 44.9431 1.38809 44.8303C1.11477 44.7174 0.866442 44.5517 0.657362 44.3427C0.448283 44.1336 0.282577 43.8853 0.169767 43.6119C0.0569566 43.3386 -0.000734925 43.0457 7.06724e-06 42.75V32.25C7.06724e-06 30.2438 2.42719 29.2406 3.84376 30.6563L7.23657 34.05L17.2931 24L7.23563 13.9406L3.84376 17.3438C2.42813 18.7594 7.06724e-06 17.7563 7.06724e-06 15.75V5.25001C-0.000734925 4.95433 0.0569566 4.66141 0.169767 4.38809C0.282577 4.11477 0.448283 3.86644 0.657362 3.65736C0.866442 3.44828 1.11477 3.28258 1.38809 3.16977C1.66141 3.05696 1.95432 2.99927 2.25001 3.00001H12.75C14.7553 3.00001 15.7584 5.42813 14.3438 6.84376L10.95 10.2375L21 20.2875L31.0528 10.2281L27.6563 6.84376C26.2416 5.42813 27.2447 3.00001 29.25 3.00001H39.75C40.0457 2.99927 40.3386 3.05696 40.6119 3.16977C40.8852 3.28258 41.1336 3.44828 41.3427 3.65736C41.5517 3.86644 41.7174 4.11477 41.8302 4.38809C41.9431 4.66141 42.0007 4.95433 42 5.25001V15.75C42 17.7563 39.5728 18.7594 38.1563 17.3438L34.7634 13.95L24.7069 24L34.7644 34.0594L38.1563 30.6656C39.5719 29.2406 42 30.2438 42 32.25Z" fill="#FFCA19"/>
</g>
<defs>
<clipPath id="clip0">
<rect width="42" height="48" fill="white"/>
</clipPath>
</defs>
</svg>
