<svg width="15" height="16" viewBox="0 0 15 16" fill="none" xmlns="http://www.w3.org/2000/svg">
<path d="M10.9 0.277344H4.2C1.9 0.277344 0 2.17734 0 4.47734V11.1773C0 13.4773 1.9 15.2773 4.2 15.2773H10.9C13.2 15.2773 15 13.3773 15 11.1773V4.47734C15 2.17734 13.2 0.277344 10.9 0.277344ZM13.7 11.1773C13.7 12.6773 12.4 13.9773 10.9 13.9773H4.2C2.7 13.9773 1.4 12.6773 1.4 11.1773V4.47734C1.4 2.97734 2.7 1.67734 4.2 1.67734H10.9C12.4 1.67734 13.7 2.97734 13.7 4.47734V11.1773Z" fill="#F9F9F9"/>
<path d="M7.5001 3.97754C5.4001 3.97754 3.6001 5.67754 3.6001 7.87754C3.6001 9.97754 5.3001 11.7775 7.5001 11.7775C9.7001 11.7775 11.4001 10.0775 11.4001 7.87754C11.4001 5.67754 9.7001 3.97754 7.5001 3.97754ZM7.5001 10.3775C6.1001 10.3775 5.0001 9.17754 5.0001 7.77754C5.0001 6.37754 6.1001 5.27754 7.5001 5.27754C8.9001 5.27754 10.0001 6.37754 10.0001 7.77754C10.1001 9.17754 8.9001 10.3775 7.5001 10.3775Z" fill="#F9F9F9"/>
<path d="M11.6001 2.77734C11.3001 2.77734 11.1001 2.87734 10.9001 3.07734C10.7001 3.27734 10.6001 3.47734 10.6001 3.77734C10.6001 4.07734 10.7001 4.27734 10.9001 4.47734C11.1001 4.67734 11.3001 4.77734 11.6001 4.77734C11.9001 4.77734 12.1001 4.67734 12.3001 4.47734C12.5001 4.27734 12.6001 4.07734 12.6001 3.77734C12.6001 3.47734 12.5001 3.27734 12.3001 3.07734C12.1001 2.87734 11.8001 2.77734 11.6001 2.77734Z" fill="#F9F9F9"/>
</svg>
