<svg xmlns="http://www.w3.org/2000/svg" xmlns:xlink="http://www.w3.org/1999/xlink" viewBox="0 0 626.29 605.7"><defs><style>.cls-1{fill:url(#Безымянный_градиент_9);}.cls-2{fill:none;}.cls-3{fill:#fff;}.cls-4{fill:#ffd720;}.cls-5{fill:#fdcd2b;}.cls-6{clip-path:url(#clip-path);}.cls-7{clip-path:url(#clip-path-2);}.cls-8{fill:url(#Безымянный_градиент_5);}.cls-9{clip-path:url(#clip-path-3);}.cls-10{fill:url(#Безымянный_градиент_5-2);}.cls-11{clip-path:url(#clip-path-4);}.cls-12{fill:url(#Безымянный_градиент_5-3);}.cls-13{clip-path:url(#clip-path-5);}.cls-14{fill:url(#Безымянный_градиент_5-4);}.cls-15{clip-path:url(#clip-path-6);}.cls-16{fill:url(#Безымянный_градиент_5-5);}.cls-17{clip-path:url(#clip-path-7);}.cls-18{fill:url(#Безымянный_градиент_7);}.cls-19{clip-path:url(#clip-path-8);}.cls-20{fill:url(#Безымянный_градиент_7-2);}.cls-21{opacity:0.3;}.cls-22{clip-path:url(#clip-path-10);}.cls-23{clip-path:url(#clip-path-11);}.cls-24{mask:url(#mask);}.cls-25{fill:url(#Безымянный_градиент_8);}</style><linearGradient id="Безымянный_градиент_9" y1="605.71" x2="1" y2="605.71" gradientTransform="matrix(466.99, 0, 0, -466.99, 80.79, 283146.09)" gradientUnits="userSpaceOnUse"><stop offset="0" stop-color="#fff"/><stop offset="1"/></linearGradient><clipPath id="clip-path" transform="translate(0 0)"><rect class="cls-2" width="626.29" height="605.7"/></clipPath><clipPath id="clip-path-2" transform="translate(0 0)"><path class="cls-2" d="M135.47,323.42a1.5,1.5,0,0,0-1.7,1.68v16.73a1.5,1.5,0,0,0,1.7,1.68h15.8A1.5,1.5,0,0,1,153,345.2V473.73l20.09-.65V345.2a1.5,1.5,0,0,1,1.69-1.69h15.65a1.49,1.49,0,0,0,1.69-1.68V325.1a1.49,1.49,0,0,0-1.69-1.68Z"/></clipPath><linearGradient id="Безымянный_градиент_5" y1="605.65" x2="1" y2="605.65" gradientTransform="matrix(0, 184.64, 184.64, 0, -111662.63, 406.8)" gradientUnits="userSpaceOnUse"><stop offset="0" stop-color="#fff"/><stop offset="1" stop-color="#fdcd2b"/></linearGradient><clipPath id="clip-path-3" transform="translate(0 0)"><path class="cls-2" d="M228.3,454.05a8.76,8.76,0,0,1-2.63-6.37V352.57a8.76,8.76,0,0,1,2.63-6.37,8.56,8.56,0,0,1,6.35-2.69,8.83,8.83,0,0,1,6.42,2.69,8.68,8.68,0,0,1,2.71,6.37v95.11a8.68,8.68,0,0,1-2.71,6.37,8.82,8.82,0,0,1-6.42,2.68,8.55,8.55,0,0,1-6.35-2.68m-4.85-128.33a30.34,30.34,0,0,0-9.28,6.21,29,29,0,0,0-8.59,20.64v95.11a29,29,0,0,0,8.59,20.64,29.94,29.94,0,0,0,4,3.29l34.75-1.14a22.74,22.74,0,0,0,2.44-2.15,29.09,29.09,0,0,0,6.22-9.29,28.4,28.4,0,0,0,2.3-11.35V352.57a28.45,28.45,0,0,0-2.3-11.36,28.8,28.8,0,0,0-15.49-15.49,28.46,28.46,0,0,0-11.37-2.3,27.87,27.87,0,0,0-11.26,2.3"/></clipPath><linearGradient id="Безымянный_градиент_5-2" y1="605.71" y2="605.71" gradientTransform="matrix(0, 184.64, 184.64, 0, -111600.59, 395.89)" xlink:href="#Безымянный_градиент_5"/><clipPath id="clip-path-4" transform="translate(0 0)"><path class="cls-2" d="M321.39,323.42a1.49,1.49,0,0,0-1.69,1.68V447.68a8.84,8.84,0,0,1-2.59,6.37,8.47,8.47,0,0,1-6.29,2.68,9.17,9.17,0,0,1-9.06-9.05V325.1a1.48,1.48,0,0,0-1.68-1.68H283.35a1.48,1.48,0,0,0-1.68,1.68V447.68A28.73,28.73,0,0,0,284,459a29.37,29.37,0,0,0,6.2,9.29c.32.31.64.62,1,.91l40.52-1.32a28.87,28.87,0,0,0,5.87-8.88,28.57,28.57,0,0,0,2.3-11.35V325.1a1.49,1.49,0,0,0-1.68-1.68Z"/></clipPath><linearGradient id="Безымянный_градиент_5-3" y1="605.7" y2="605.7" gradientTransform="matrix(0, 184.64, 184.64, 0, -111522.83, 384.34)" xlink:href="#Безымянный_градиент_5"/><clipPath id="clip-path-5" transform="translate(0 0)"><path class="cls-2" d="M378.32,398V343.51h9a8.91,8.91,0,0,1,6.41,2.62,8.58,8.58,0,0,1,2.72,6.46v38.15a8.41,8.41,0,0,1-2.72,6.31,8.9,8.9,0,0,1-6.41,2.61H380a1.49,1.49,0,0,1-1.7-1.69M359.9,323.42a1.48,1.48,0,0,0-1.68,1.68V467l20.1-.65V421.45a1.49,1.49,0,0,1,1.7-1.69h7.27a8.9,8.9,0,0,1,6.41,2.61,8.37,8.37,0,0,1,2.72,6.29V465.8l20.1-.65V428.66a28,28,0,0,0-1.78-10.05,30.41,30.41,0,0,0-4.82-8.51.58.58,0,0,1,0-.93,30.41,30.41,0,0,0,4.82-8.51,28,28,0,0,0,1.78-10.05v-38a28.8,28.8,0,0,0-2.3-11.36,29.24,29.24,0,0,0-6.23-9.28,28.92,28.92,0,0,0-9.27-6.21,28.41,28.41,0,0,0-11.36-2.3Z"/></clipPath><linearGradient id="Безымянный_градиент_5-4" y1="605.71" y2="605.71" gradientTransform="matrix(0, 184.64, 184.64, 0, -111449.59, 372.68)" xlink:href="#Безымянный_градиент_5"/><clipPath id="clip-path-6" transform="translate(0 0)"><path class="cls-2" d="M474.19,323.42a1.48,1.48,0,0,0-1.68,1.68v77.32l-17.34-77.78a1.69,1.69,0,0,0-1.68-1.22H436.14a1.49,1.49,0,0,0-1.69,1.68V464.56l20.13-.65.12-63.79,14.55,63.31,23.36-.76V325.1a1.48,1.48,0,0,0-1.68-1.68Z"/></clipPath><linearGradient id="Безымянный_градиент_5-5" y1="605.7" y2="605.7" gradientTransform="matrix(0, 184.64, 184.64, 0, -111371.5, 361.11)" xlink:href="#Безымянный_градиент_5"/><clipPath id="clip-path-7" transform="translate(0 0)"><rect class="cls-2" x="165.62" width="49.43" height="33.74"/></clipPath><radialGradient id="Безымянный_градиент_7" cx="0" cy="605.7" r="1" gradientTransform="matrix(21.16, 0, 0, -21.16, 190.34, 12832.66)" gradientUnits="userSpaceOnUse"><stop offset="0" stop-color="#fff12c"/><stop offset="1" stop-color="#fcd03c"/></radialGradient><clipPath id="clip-path-8" transform="translate(0 0)"><rect class="cls-2" x="419.05" width="49.43" height="33.74"/></clipPath><radialGradient id="Безымянный_градиент_7-2" cx="0" cy="605.7" r="1" gradientTransform="matrix(21.16, 0, 0, -21.16, 443.76, 12832.66)" xlink:href="#Безымянный_градиент_7"/><clipPath id="clip-path-10" transform="translate(0 0)"><rect class="cls-2" x="80.79" y="39.05" width="466.99" height="499.4"/></clipPath><clipPath id="clip-path-11" transform="translate(0 0)"><path class="cls-2" d="M80.79,511.11S262.4,496.52,297.51,291.56s124-227.82,173.94-242.82,76.33-8.11,76.33-8.11V538.46h-467Z"/></clipPath><mask id="mask" x="80.79" y="33.74" width="466.99" height="504.71" maskUnits="userSpaceOnUse"><g transform="translate(0 0)"><rect class="cls-1" x="80.79" y="33.74" width="466.99" height="504.71"/></g></mask><linearGradient id="Безымянный_градиент_8" y1="605.71" x2="1" y2="605.71" gradientTransform="matrix(466.99, 0, 0, -466.99, 80.79, 283146.1)" gradientUnits="userSpaceOnUse"><stop offset="0" stop-color="#fff"/><stop offset="1" stop-color="#fff"/></linearGradient></defs><title>KillTourn</title><g id="Слой_2" data-name="Слой 2"><g id="Слой_1-2" data-name="Слой 1"><g id="KillTourn"><polygon class="cls-3" points="80.79 511.11 80.79 538.46 112.73 538.46 80.79 511.11"/><polygon class="cls-3" points="80.79 33.74 80.79 442.79 95.79 449.28 95.79 48.74 532.78 48.74 532.78 146.91 547.78 144.63 547.78 33.74 80.79 33.74"/><polygon class="cls-3" points="532.78 523.46 303.7 523.46 287.05 538.46 547.78 538.46 547.78 246.33 532.78 244.07 532.78 523.46"/><polygon class="cls-4" points="212.91 605.7 313.43 514.81 234.42 525.03 0 424.16 212.91 605.7"/><polygon class="cls-5" points="212.91 605.7 249.45 572.66 0 424.16 212.91 605.7"/><polygon class="cls-4" points="564.1 158.1 311.42 193.78 587.67 238.19 626.29 108.3 626.29 108.3 564.1 158.1"/><polygon class="cls-5" points="311.41 193.78 601.71 190.97 587.67 238.19 311.41 193.78"/><g class="cls-6"><path class="cls-3" d="M218.15,187.18a42.06,42.06,0,0,0,2.62-14.92V89.12a2.22,2.22,0,0,0-2.51-2.51H193.43a2.22,2.22,0,0,0-2.5,2.52v83.33a12.7,12.7,0,0,1-3.91,9.36,13.15,13.15,0,0,1-9.65,3.88H166.58a2.23,2.23,0,0,1-2.53-2.51V89.13a2.21,2.21,0,0,0-2.49-2.52H136.7a2.21,2.21,0,0,0-2.49,2.51V296.63l29.84,1V218.05a2.23,2.23,0,0,1,2.53-2.51h10.79a13.18,13.18,0,0,1,9.65,3.87,12.68,12.68,0,0,1,3.91,9.34v69.72l29.84,1V228.75a42.14,42.14,0,0,0-2.62-14.92,43.37,43.37,0,0,0-7.41-12.64,1.16,1.16,0,0,1,0-1.37,43.11,43.11,0,0,0,7.41-12.64" transform="translate(0 0)"/><path class="cls-3" d="M247.88,201.18v99.14l29.84,1v-95.6ZM275.23,86.61H250.36a2.21,2.21,0,0,0-2.48,2.51V190l29.84-4.52V89.12a2.21,2.21,0,0,0-2.49-2.51" transform="translate(0 0)"/><path class="cls-3" d="M332.61,86.61H307.78a2.22,2.22,0,0,0-2.51,2.51v92.23l29.84-4.52V89.12a2.21,2.21,0,0,0-2.5-2.51m56.72,194H337.62a2.22,2.22,0,0,1-2.51-2.51V214.31l-29.84-4.49v92.36l86.56,2.8V283.06a2.21,2.21,0,0,0-2.5-2.5" transform="translate(0 0)"/><path class="cls-3" d="M436.7,86.61H411.87a2.21,2.21,0,0,0-2.5,2.51v76.47l29.84-4.52V89.12a2.22,2.22,0,0,0-2.51-2.51m56.72,194H441.71a2.21,2.21,0,0,1-2.5-2.51V230l-29.84-4.5v80.06l86.53,2.81a3.48,3.48,0,0,0,0-.47V283.07a2.22,2.22,0,0,0-2.51-2.51" transform="translate(0 0)"/></g><g class="cls-7"><rect class="cls-8" x="122.7" y="319.87" width="80.45" height="157.42" transform="translate(-58.64 29.37) rotate(-8.73)"/></g><g class="cls-9"><rect class="cls-10" x="194.66" y="319.86" width="80.12" height="155.32" transform="translate(-57.65 40.26) rotate(-8.73)"/></g><g class="cls-11"><rect class="cls-12" x="270.93" y="319.85" width="79.61" height="152.95" transform="translate(-56.58 51.79) rotate(-8.73)"/></g><g class="cls-13"><rect class="cls-14" x="347.65" y="319.83" width="79.43" height="150.81" transform="translate(-55.53 63.41) rotate(-8.73)"/></g><g class="cls-15"><rect class="cls-16" x="424.08" y="319.83" width="78.91" height="148.33" transform="translate(-54.46 74.96) rotate(-8.73)"/></g><g class="cls-17"><rect class="cls-18" x="165.62" width="49.43" height="33.74"/></g><g class="cls-19"><rect class="cls-20" x="419.05" width="49.43" height="33.74"/></g><g class="cls-6"><g class="cls-21"><g class="cls-22"><g class="cls-23"><g class="cls-24"><rect class="cls-25" x="80.79" y="33.74" width="466.99" height="504.71"/></g></g></g></g></g></g></g></g></svg>