<svg width="100" height="97" viewBox="0 0 100 97" fill="none" xmlns="http://www.w3.org/2000/svg">
<path d="M12.8997 81.8518V86.2318H17.9995L12.8997 81.8518Z" fill="white"/>
<path d="M12.8997 5.40332V70.9108L15.2947 71.9501V7.8055H85.0691V23.527L87.4642 23.1618V5.40332H12.8997Z" fill="white"/>
<path d="M85.0693 83.8295H48.492L45.8335 86.2317H87.4644V39.4485L85.0693 39.0865V83.8295Z" fill="white"/>
<path d="M33.9954 97.0001L50.0455 82.4444L37.4299 84.0811L0 67.9272L33.9954 97.0001Z" fill="#FFD720"/>
<path d="M33.9954 97.0001L39.8298 91.7088L0 67.9272L33.9954 97.0001Z" fill="#FDCD2B"/>
<path d="M90.0703 25.319L49.7249 31.033L93.8338 38.145L100 17.3438L90.0703 25.319Z" fill="#FFD720"/>
<path d="M49.7227 31.033L96.075 30.583L93.8332 38.1451L49.7227 31.033Z" fill="#FDCD2B"/>
<path d="M34.8323 29.9763C35.1147 29.2118 35.2565 28.4022 35.2506 27.5869V14.2724C35.2583 14.2178 35.2533 14.1622 35.2359 14.1099C35.2185 14.0576 35.1892 14.0101 35.1503 13.9711C35.1114 13.9321 35.064 13.9027 35.0119 13.8852C34.9597 13.8678 34.9043 13.8627 34.8498 13.8705H30.8852C30.8307 13.8629 30.7753 13.8682 30.7232 13.8859C30.6711 13.9036 30.6239 13.9331 30.5851 13.9723C30.5464 14.0114 30.5173 14.0591 30.5001 14.1114C30.4829 14.1638 30.4781 14.2195 30.486 14.274V27.619C30.4902 27.8984 30.437 28.1758 30.3296 28.4337C30.2221 28.6916 30.0629 28.9245 29.8617 29.1179C29.6605 29.3211 29.4201 29.481 29.1552 29.5879C28.8902 29.6947 28.6064 29.7462 28.3209 29.7393H26.5981C26.5434 29.7472 26.4877 29.7424 26.4353 29.725C26.3829 29.7077 26.3352 29.6784 26.2961 29.6394C26.2569 29.6004 26.2273 29.5528 26.2096 29.5004C26.1919 29.448 26.1866 29.3921 26.1941 29.3373V14.274C26.2023 14.2196 26.1978 14.1639 26.1808 14.1115C26.1638 14.0591 26.1348 14.0114 26.0962 13.9723C26.0576 13.9331 26.0104 13.9035 25.9584 13.8858C25.9063 13.8681 25.8509 13.8629 25.7965 13.8705H21.8271C21.7728 13.8629 21.7176 13.8682 21.6657 13.8857C21.6138 13.9033 21.5667 13.9328 21.5281 13.9718C21.4896 14.0108 21.4606 14.0583 21.4435 14.1104C21.4263 14.1626 21.4216 14.2181 21.4295 14.2724V47.5042L26.1941 47.6644V34.92C26.1866 34.8651 26.1919 34.8093 26.2096 34.7569C26.2273 34.7045 26.2569 34.6569 26.2961 34.6179C26.3352 34.5789 26.3829 34.5496 26.4353 34.5323C26.4877 34.5149 26.5434 34.5101 26.5981 34.518H28.3209C28.6062 34.5111 28.8899 34.5625 29.1548 34.6691C29.4197 34.7756 29.6602 34.9351 29.8617 35.1378C30.0626 35.3307 30.2218 35.5631 30.3292 35.8204C30.4366 36.0778 30.49 36.3546 30.486 36.6335V47.7989L35.2506 47.959V36.6335C35.2562 35.8183 35.1145 35.0087 34.8323 34.2442C34.5552 33.507 34.1551 32.8225 33.6491 32.2199C33.6259 32.1881 33.6134 32.1497 33.6134 32.1102C33.6134 32.0708 33.6259 32.0324 33.6491 32.0005C34.1558 31.3984 34.5559 30.7138 34.8323 29.9763Z" fill="white"/>
<path d="M39.5789 32.218V48.0948L44.3435 48.255V32.9451L39.5789 32.218ZM43.9459 13.8702H39.9749C39.9208 13.8629 39.8657 13.8683 39.814 13.886C39.7623 13.9038 39.7154 13.9332 39.6771 13.9722C39.6387 14.0112 39.6098 14.0585 39.5928 14.1106C39.5758 14.1626 39.571 14.2179 39.5789 14.2721V30.4276L44.3435 29.7037V14.2721C44.3514 14.2178 44.3466 14.1623 44.3295 14.1101C44.3124 14.058 44.2834 14.0105 44.2448 13.9715C44.2063 13.9325 44.1592 13.903 44.1073 13.8854C44.0554 13.8679 44.0001 13.8626 43.9459 13.8702Z" fill="white"/>
<path d="M53.1077 13.8702H49.1431C49.0886 13.8624 49.0331 13.8675 48.981 13.8849C48.9289 13.9024 48.8815 13.9318 48.8426 13.9708C48.8037 14.0098 48.7744 14.0573 48.757 14.1096C48.7396 14.1619 48.7346 14.2175 48.7423 14.2721V29.0423L53.5069 28.3185V14.2721C53.5149 14.2176 53.5101 14.162 53.4929 14.1097C53.4757 14.0573 53.4465 14.0098 53.4078 13.9707C53.369 13.9317 53.3217 13.9023 53.2696 13.8848C53.2175 13.8674 53.1621 13.8623 53.1077 13.8702ZM62.1642 44.9384H53.9076C53.8532 44.9461 53.7977 44.9411 53.7456 44.9236C53.6934 44.9061 53.646 44.8768 53.6072 44.8378C53.5683 44.7988 53.539 44.7513 53.5216 44.6989C53.5042 44.6466 53.4991 44.591 53.5069 44.5364V34.3207L48.7423 33.6017V48.3927L62.5634 48.8411V45.3307C62.5711 45.2763 62.5661 45.2209 62.5488 45.1688C62.5315 45.1167 62.5023 45.0693 62.4636 45.0305C62.4248 44.9916 62.3776 44.9624 62.3257 44.945C62.2737 44.9276 62.2184 44.9226 62.1642 44.9304" fill="white"/>
<path d="M69.7282 13.8702H65.7635C65.7092 13.8623 65.6537 13.8674 65.6016 13.8848C65.5495 13.9023 65.5022 13.9317 65.4635 13.9707C65.4247 14.0098 65.3955 14.0573 65.3783 14.1097C65.3611 14.162 65.3564 14.2176 65.3644 14.2721V26.5184L70.1289 25.7946V14.2721C70.1367 14.2175 70.1316 14.1619 70.1142 14.1096C70.0968 14.0573 70.0675 14.0098 70.0286 13.9708C69.9898 13.9318 69.9424 13.9024 69.8902 13.8849C69.8381 13.8675 69.7826 13.8624 69.7282 13.8702ZM78.7847 44.9383H70.5281C70.4737 44.9461 70.4183 44.9411 70.3662 44.9237C70.3141 44.9062 70.2668 44.8768 70.228 44.8377C70.1892 44.7987 70.1601 44.7511 70.1429 44.6988C70.1257 44.6465 70.1209 44.5909 70.1289 44.5364V36.8334L65.3644 36.1127V48.9339L79.1806 49.384C79.1823 49.3589 79.1823 49.3337 79.1806 49.3087V45.3323C79.1884 45.2777 79.1833 45.222 79.1659 45.1697C79.1485 45.1174 79.1192 45.0699 79.0803 45.0309C79.0415 44.9919 78.9941 44.9625 78.9419 44.9451C78.8898 44.9276 78.8343 44.9226 78.7799 44.9303" fill="white"/>
<path d="M30.4498 50.3979L17.7532 52.3534L21.5682 77.2714L34.2648 75.3159L30.4498 50.3979Z" fill="url(#paint0_linear)"/>
<path d="M41.9124 50.3994L29.2678 52.3468L33.0319 76.9324L45.6765 74.985L41.9124 50.3994Z" fill="url(#paint1_linear)"/>
<path d="M54.0397 50.4026L41.4756 52.3376L45.1822 76.5481L57.7463 74.6131L54.0397 50.4026Z" fill="url(#paint2_linear)"/>
<path d="M66.2864 50.3999L53.7507 52.3306L57.4055 76.2023L69.9412 74.2716L66.2864 50.3999Z" fill="url(#paint3_linear)"/>
<path d="M78.4375 50.4042L65.9839 52.3223L69.5786 75.8014L82.0322 73.8834L78.4375 50.4042Z" fill="url(#paint4_linear)"/>
<path d="M34.3371 0H26.4446V5.4033H34.3371V0Z" fill="url(#paint5_radial)"/>
<path d="M74.8027 0H66.9102V5.4033H74.8027V0Z" fill="url(#paint6_radial)"/>
<g opacity="0.3">
<g opacity="0.3">
<g opacity="0.3">
<g opacity="0.3">
<path opacity="0.3" d="M87.4642 5.40332H12.8997V86.2302H87.4642V5.40332Z" fill="url(#paint7_linear)"/>
</g>
</g>
</g>
</g>
<defs>
<linearGradient id="paint0_linear" x1="26.4703" y1="65.0954" x2="30.971" y2="94.318" gradientUnits="userSpaceOnUse">
<stop stop-color="white"/>
<stop offset="1" stop-color="#FDCD2B"/>
</linearGradient>
<linearGradient id="paint1_linear" x1="2.73404e+06" y1="-415188" x2="2.7344e+06" y2="-412846" gradientUnits="userSpaceOnUse">
<stop stop-color="white"/>
<stop offset="1" stop-color="#FDCD2B"/>
</linearGradient>
<linearGradient id="paint2_linear" x1="2.69251e+06" y1="-406511" x2="2.69287e+06" y2="-404185" gradientUnits="userSpaceOnUse">
<stop stop-color="white"/>
<stop offset="1" stop-color="#FDCD2B"/>
</linearGradient>
<linearGradient id="paint3_linear" x1="2.65514e+06" y1="-398460" x2="2.6555e+06" y2="-396139" gradientUnits="userSpaceOnUse">
<stop stop-color="white"/>
<stop offset="1" stop-color="#FDCD2B"/>
</linearGradient>
<linearGradient id="paint4_linear" x1="2.61168e+06" y1="-389479" x2="2.61203e+06" y2="-387173" gradientUnits="userSpaceOnUse">
<stop stop-color="white"/>
<stop offset="1" stop-color="#FDCD2B"/>
</linearGradient>
<radialGradient id="paint5_radial" cx="0" cy="0" r="1" gradientUnits="userSpaceOnUse" gradientTransform="translate(30.3916 2.57001) scale(3.37864 3.38867)">
<stop stop-color="#FFF12C"/>
<stop offset="1" stop-color="#FCD03C"/>
</radialGradient>
<radialGradient id="paint6_radial" cx="0" cy="0" r="1" gradientUnits="userSpaceOnUse" gradientTransform="translate(1486.67 -67196.9) scale(167.005 114.334)">
<stop stop-color="#FFF12C"/>
<stop offset="1" stop-color="#FCD03C"/>
</radialGradient>
<linearGradient id="paint7_linear" x1="12.8997" y1="45.7354" x2="87.4642" y2="45.7354" gradientUnits="userSpaceOnUse">
<stop stop-color="white"/>
<stop offset="1" stop-color="white"/>
</linearGradient>
</defs>
</svg>
