<svg width="508" height="337" viewBox="0 0 508 337" fill="none" xmlns="http://www.w3.org/2000/svg">
<path d="M432.184 94.7154L332.111 67.4372C326.478 106.598 302.894 136.617 289.688 150.726L419.542 150.379L432.184 94.7154Z" fill="#648E23"/>
<path d="M413.267 96.4391C413.267 96.4391 411.848 104.297 421.286 107.385L423.178 99.2873L413.267 96.4391Z" fill="#1D6820"/>
<path d="M338.684 74.9782L346.996 77.3667C346.065 79.4251 344.578 81.1844 342.703 82.4485C340.828 83.7125 338.637 84.4316 336.375 84.5254L338.684 74.9782Z" fill="#1D6820"/>
<path d="M337.614 73.197L337.303 74.6835C327.842 119.481 302.685 145.218 296.813 150.719L300.864 150.701C309.268 142.179 330.801 117.234 339.744 76.758L421.487 100.277L409.733 150.404L412.638 150.4L424.858 98.3057L337.614 73.197Z" fill="#1D6820"/>
<path d="M368.27 129.986C360.72 127.729 352.584 128.556 345.649 132.285C338.714 136.014 333.549 142.34 331.29 149.872C331.25 150.128 331.151 150.375 331.091 150.629L347.148 150.582C347.195 150.276 347.303 149.97 347.399 149.611L348.717 145.221C350.142 140.465 353.2 138.757 357.91 140.164L361.371 141.205L363.048 135.608L369.208 137.451L367.532 143.048L377.475 146.012L376.138 150.46L388.387 150.429C387.039 145.603 384.487 141.196 380.968 137.621C377.45 134.046 373.081 131.419 368.27 129.986Z" fill="#1D6820"/>
<path d="M469.05 110.12L390.821 54.977C378.526 89.1985 317.76 134.195 294.101 150.723L443.929 150.321C454.467 138.396 462.955 124.812 469.05 110.12Z" fill="#78B12C"/>
<path d="M462.933 109.435L393.445 62.0777L392.764 63.3353C392.465 63.8948 363.059 117.9 302.958 150.702L308.222 150.69C361.265 120.207 389.627 73.9154 394.329 65.7788L459.834 110.429C452.017 131.431 440.873 144.244 434.494 150.343L438.22 150.335C445.041 143.405 455.248 130.558 462.625 110.377L462.933 109.435Z" fill="#1D6820"/>
<path d="M450.947 103.59C450.947 103.59 447.549 114.745 459.094 115.797L461.602 109.209L450.947 103.59Z" fill="#1D6820"/>
<path d="M393.995 64.5357L401.41 70.622C401.41 70.622 396.694 74.9396 389.134 71.9407L393.995 64.5357Z" fill="#1D6820"/>
<path d="M399.259 139.371C396.038 135.593 391.832 132.779 387.107 131.243C382.382 129.706 377.324 129.507 372.494 130.667C367.664 131.827 363.251 134.3 359.747 137.813C356.244 141.326 353.785 145.74 352.645 150.565L362.718 150.541C363.121 150.044 363.572 149.586 364.063 149.174L366.556 147.057L363.132 143.033L367.559 139.276L370.984 143.3L378.125 137.248L382.962 142.925L375.634 149.14L376.79 150.5L380.617 150.487L381.701 149.565C384.789 146.943 387.659 147.226 390.356 150.391L390.416 150.461L404.903 150.423C403.919 146.348 401.985 142.561 399.259 139.371Z" fill="#1D6820"/>
<path d="M439.884 105.824C439.751 106.682 439.366 107.481 438.778 108.12C438.19 108.76 437.424 109.211 436.579 109.416C435.734 109.621 434.846 109.572 434.028 109.274C433.211 108.975 432.5 108.442 431.986 107.741C431.472 107.04 431.178 106.203 431.14 105.336C431.103 104.468 431.324 103.609 431.776 102.867C432.228 102.125 432.89 101.534 433.679 101.168C434.468 100.802 435.348 100.678 436.208 100.811C437.361 100.99 438.397 101.619 439.086 102.558C439.775 103.498 440.062 104.673 439.884 105.824Z" stroke="#FFD008" stroke-width="1.98425" stroke-miterlimit="10"/>
<path d="M205.791 56.0741C205.656 56.9315 205.27 57.7295 204.681 58.3675C204.091 59.0054 203.326 59.4546 202.48 59.6584C201.635 59.8621 200.748 59.8112 199.931 59.5121C199.115 59.213 198.405 58.6791 197.892 57.9779C197.379 57.2767 197.085 56.4397 197.049 55.5725C197.012 54.7053 197.234 53.8469 197.686 53.1058C198.138 52.3646 198.8 51.774 199.589 51.4085C200.378 51.0429 201.257 50.9189 202.117 51.0521C202.689 51.1407 203.238 51.341 203.732 51.6415C204.226 51.942 204.656 52.3367 204.998 52.8032C205.339 53.2697 205.585 53.7987 205.721 54.36C205.857 54.9213 205.881 55.5038 205.791 56.0741Z" stroke="#FFD008" stroke-width="1.98425" stroke-miterlimit="10"/>
<path d="M356.895 59.5851C356.764 60.4459 356.38 61.2482 355.791 61.8906C355.202 62.5329 354.436 62.9865 353.588 63.1937C352.741 63.401 351.851 63.3527 351.031 63.055C350.211 62.7572 349.497 62.2234 348.981 61.5211C348.465 60.8188 348.169 59.9795 348.13 59.1096C348.092 58.2397 348.313 57.3781 348.766 56.6341C349.219 55.89 349.883 55.2969 350.674 54.9297C351.465 54.5625 352.347 54.4379 353.21 54.5715C353.782 54.6588 354.331 54.8578 354.826 55.1572C355.321 55.4565 355.752 55.8503 356.094 56.3161C356.437 56.7818 356.684 57.3102 356.821 57.8712C356.958 58.4322 356.984 59.0146 356.895 59.5851V59.5851Z" stroke="#FFD008" stroke-width="1.98425" stroke-miterlimit="10"/>
<path d="M454.129 138.695C455.33 138.881 456.454 138.06 456.639 136.862C456.825 135.664 456.002 134.542 454.802 134.356C453.601 134.17 452.477 134.991 452.291 136.189C452.106 137.387 452.929 138.509 454.129 138.695Z" stroke="#FFD008" stroke-width="0.566929" stroke-miterlimit="10"/>
<path d="M364.773 240.075C364.705 240.503 364.511 240.902 364.216 241.22C363.921 241.538 363.537 241.762 363.115 241.863C362.692 241.964 362.249 241.938 361.841 241.788C361.433 241.638 361.079 241.371 360.823 241.02C360.567 240.669 360.421 240.251 360.403 239.817C360.385 239.384 360.496 238.955 360.722 238.585C360.948 238.215 361.279 237.92 361.673 237.737C362.068 237.554 362.507 237.493 362.937 237.559C363.514 237.651 364.031 237.968 364.375 238.439C364.719 238.911 364.862 239.499 364.773 240.075Z" stroke="#FFD008" stroke-width="0.566929" stroke-miterlimit="10"/>
<path d="M230.335 73.3561C230.268 73.7852 230.076 74.1848 229.781 74.5045C229.487 74.8242 229.105 75.0496 228.682 75.1523C228.259 75.2549 227.815 75.2301 227.407 75.0811C226.998 74.932 226.643 74.6654 226.386 74.315C226.128 73.9645 225.981 73.5459 225.963 73.1121C225.944 72.6783 226.055 72.2488 226.281 71.8779C226.506 71.5071 226.838 71.2114 227.232 71.0285C227.627 70.8455 228.067 70.7834 228.497 70.85C229.073 70.9394 229.591 71.2536 229.935 71.7236C230.28 72.1936 230.424 72.7808 230.335 73.3561Z" stroke="#FFD008" stroke-width="0.566929" stroke-miterlimit="10"/>
<path d="M461.798 225.898C461.731 226.327 461.539 226.727 461.245 227.046C460.951 227.366 460.568 227.591 460.145 227.694C459.723 227.797 459.279 227.772 458.87 227.623C458.461 227.474 458.106 227.207 457.849 226.857C457.592 226.506 457.445 226.088 457.426 225.654C457.407 225.22 457.518 224.791 457.744 224.42C457.97 224.049 458.301 223.753 458.695 223.57C459.09 223.387 459.53 223.325 459.96 223.392C460.535 223.484 461.051 223.798 461.395 224.268C461.74 224.737 461.884 225.323 461.798 225.898V225.898Z" stroke="#FFD008" stroke-width="0.566929" stroke-miterlimit="10"/>
<path d="M125.67 100.202C125.604 100.631 125.411 101.031 125.117 101.351C124.823 101.671 124.44 101.896 124.017 101.999C123.595 102.101 123.151 102.076 122.742 101.927C122.333 101.778 121.978 101.512 121.721 101.161C121.464 100.811 121.317 100.392 121.298 99.9584C121.279 99.5246 121.39 99.0951 121.616 98.7242C121.842 98.3534 122.173 98.0577 122.568 97.8748C122.962 97.6918 123.402 97.6297 123.832 97.6963C124.409 97.7857 124.926 98.0999 125.271 98.5699C125.616 99.0399 125.759 99.6271 125.67 100.202Z" stroke="#FFD008" stroke-width="0.566929" stroke-miterlimit="10"/>
<path d="M431.456 174.196C431.395 174.183 431.339 174.149 431.299 174.101C431.264 174.049 431.249 173.985 431.259 173.923C431.269 173.861 431.302 173.805 431.351 173.766L435.664 170.617C435.689 170.597 435.718 170.583 435.749 170.574C435.779 170.566 435.812 170.564 435.843 170.569C435.875 170.574 435.905 170.586 435.932 170.603C435.959 170.62 435.982 170.643 436 170.669C436.02 170.693 436.035 170.721 436.043 170.751C436.051 170.781 436.053 170.813 436.048 170.844C436.044 170.874 436.032 170.904 436.015 170.93C435.998 170.956 435.976 170.978 435.949 170.995L431.655 174.156C431.596 174.194 431.525 174.208 431.456 174.196Z" fill="white"/>
<path d="M435.192 174.775C435.13 174.762 435.074 174.728 435.034 174.68L431.878 170.364C431.843 170.314 431.829 170.252 431.838 170.191C431.847 170.131 431.88 170.076 431.928 170.039C431.953 170.019 431.982 170.004 432.013 169.996C432.044 169.987 432.076 169.986 432.108 169.991C432.139 169.995 432.17 170.007 432.197 170.024C432.223 170.041 432.247 170.064 432.264 170.091L435.422 174.397C435.442 174.421 435.457 174.45 435.465 174.481C435.474 174.512 435.475 174.544 435.47 174.576C435.466 174.607 435.454 174.637 435.437 174.664C435.42 174.691 435.397 174.714 435.37 174.732C435.318 174.767 435.254 174.783 435.192 174.775Z" fill="white"/>
<path d="M242.541 257.455C242.478 257.443 242.423 257.409 242.383 257.36C242.363 257.335 242.349 257.306 242.34 257.275C242.332 257.244 242.33 257.212 242.335 257.181C242.34 257.149 242.352 257.119 242.369 257.092C242.386 257.065 242.409 257.042 242.435 257.024L246.75 253.866C246.775 253.848 246.804 253.834 246.835 253.827C246.866 253.819 246.897 253.818 246.929 253.823C246.96 253.828 246.99 253.839 247.017 253.855C247.044 253.871 247.067 253.893 247.086 253.918C247.104 253.944 247.118 253.973 247.125 254.003C247.133 254.034 247.134 254.066 247.129 254.097C247.125 254.128 247.114 254.158 247.097 254.185C247.081 254.212 247.059 254.235 247.034 254.254L242.68 257.406C242.639 257.434 242.591 257.451 242.541 257.455Z" fill="white"/>
<path d="M246.276 258.034C246.215 258.02 246.159 257.987 246.119 257.938L242.955 253.672C242.935 253.647 242.92 253.618 242.912 253.588C242.904 253.557 242.902 253.524 242.907 253.493C242.912 253.461 242.923 253.431 242.94 253.404C242.958 253.377 242.98 253.354 243.007 253.337C243.059 253.302 243.123 253.287 243.185 253.297C243.247 253.307 243.304 253.339 243.343 253.389L246.499 257.705C246.535 257.757 246.549 257.82 246.539 257.882C246.53 257.945 246.497 258.001 246.447 258.04C246.391 258.056 246.331 258.053 246.276 258.034Z" fill="white"/>
<path d="M96.866 155.745C96.836 155.742 96.8071 155.731 96.7815 155.715C96.756 155.699 96.7345 155.677 96.7186 155.652C96.6986 155.628 96.684 155.6 96.6756 155.57C96.6673 155.54 96.6654 155.508 96.6702 155.477C96.675 155.447 96.6862 155.417 96.7033 155.391C96.7203 155.365 96.7427 155.343 96.769 155.326L101.123 152.174C101.174 152.136 101.239 152.121 101.302 152.131C101.365 152.14 101.421 152.175 101.459 152.226C101.497 152.277 101.512 152.342 101.503 152.404C101.493 152.467 101.458 152.524 101.407 152.561L97.0842 155.708C97.0549 155.734 97.0189 155.751 96.9804 155.758C96.9418 155.764 96.9022 155.76 96.866 155.745Z" fill="white"/>
<path d="M100.611 156.325C100.58 156.322 100.549 156.311 100.522 156.295C100.495 156.279 100.472 156.257 100.454 156.23L97.2962 151.924C97.2761 151.9 97.2614 151.871 97.2531 151.84C97.2448 151.809 97.243 151.777 97.2479 151.745C97.2528 151.714 97.2642 151.684 97.2815 151.657C97.2987 151.63 97.3214 151.607 97.3481 151.589C97.3986 151.554 97.4605 151.54 97.5212 151.55C97.5818 151.559 97.6366 151.591 97.6742 151.64L100.845 155.927C100.87 155.966 100.883 156.01 100.884 156.056C100.884 156.101 100.872 156.146 100.848 156.184C100.824 156.223 100.789 156.254 100.748 156.274C100.707 156.294 100.661 156.301 100.616 156.296L100.611 156.325Z" fill="white"/>
<path d="M388.711 229.719C388.649 229.706 388.594 229.672 388.554 229.624C388.518 229.572 388.504 229.508 388.514 229.446C388.523 229.384 388.556 229.328 388.606 229.289L392.919 226.14C392.943 226.12 392.972 226.106 393.003 226.098C393.034 226.089 393.066 226.088 393.098 226.092C393.13 226.097 393.16 226.109 393.187 226.126C393.214 226.143 393.237 226.166 393.255 226.192C393.289 226.243 393.304 226.305 393.294 226.365C393.285 226.426 393.253 226.48 393.204 226.518L388.89 229.676C388.837 229.71 388.774 229.725 388.711 229.719Z" fill="white"/>
<path d="M392.446 230.298C392.385 230.285 392.329 230.251 392.289 230.203L389.133 225.887C389.098 225.837 389.084 225.775 389.093 225.714C389.102 225.654 389.135 225.599 389.183 225.562C389.208 225.542 389.237 225.527 389.268 225.519C389.299 225.51 389.331 225.509 389.363 225.514C389.394 225.519 389.424 225.53 389.451 225.547C389.478 225.564 389.501 225.587 389.519 225.614L392.657 229.917C392.693 229.969 392.707 230.032 392.697 230.094C392.688 230.157 392.655 230.213 392.605 230.252C392.558 230.283 392.503 230.299 392.446 230.298Z" fill="white"/>
<path d="M153.112 258.986C153.081 258.982 153.05 258.972 153.023 258.955C152.996 258.939 152.973 258.917 152.955 258.891C152.919 258.839 152.905 258.776 152.915 258.713C152.924 258.651 152.957 258.595 153.007 258.556L157.319 255.408C157.372 255.372 157.435 255.358 157.498 255.368C157.56 255.378 157.616 255.41 157.655 255.46C157.676 255.485 157.69 255.513 157.699 255.544C157.707 255.575 157.709 255.607 157.704 255.639C157.699 255.67 157.687 255.701 157.67 255.727C157.653 255.754 157.63 255.777 157.604 255.795L153.288 258.963C153.261 258.978 153.232 258.988 153.202 258.992C153.172 258.996 153.141 258.994 153.112 258.986Z" fill="white"/>
<path d="M156.847 259.565C156.816 259.561 156.786 259.55 156.759 259.534C156.732 259.518 156.708 259.496 156.69 259.47L153.532 255.164C153.513 255.139 153.5 255.11 153.492 255.079C153.485 255.049 153.484 255.017 153.488 254.986C153.493 254.955 153.504 254.925 153.521 254.898C153.537 254.871 153.559 254.847 153.584 254.829C153.609 254.81 153.638 254.797 153.669 254.789C153.7 254.782 153.732 254.781 153.763 254.785C153.794 254.79 153.824 254.801 153.851 254.818C153.878 254.834 153.901 254.855 153.92 254.881L157.078 259.187C157.098 259.212 157.113 259.24 157.121 259.271C157.129 259.302 157.131 259.334 157.126 259.366C157.121 259.397 157.11 259.428 157.093 259.455C157.075 259.481 157.053 259.504 157.026 259.522C157.001 259.542 156.972 259.556 156.941 259.563C156.911 259.57 156.878 259.571 156.847 259.565Z" fill="white"/>
<path d="M169.541 66.0873C169.509 66.0838 169.479 66.0734 169.452 66.057C169.425 66.0406 169.401 66.0185 169.383 65.9923C169.363 65.9674 169.349 65.9386 169.34 65.9078C169.332 65.877 169.33 65.8447 169.335 65.8132C169.34 65.7816 169.352 65.7514 169.369 65.7246C169.386 65.6977 169.409 65.6747 169.435 65.6571L173.748 62.5087C173.8 62.4711 173.864 62.4555 173.927 62.4653C173.99 62.4751 174.047 62.5094 174.084 62.5607C174.122 62.6121 174.138 62.6763 174.128 62.7392C174.118 62.802 174.084 62.8584 174.032 62.896L169.719 66.0444C169.694 66.0634 169.665 66.077 169.635 66.0844C169.604 66.0918 169.572 66.0928 169.541 66.0873Z" fill="white"/>
<path d="M173.276 66.6661C173.245 66.6619 173.215 66.6513 173.188 66.6349C173.161 66.6186 173.137 66.5969 173.119 66.5711L169.961 62.2652C169.941 62.2403 169.926 62.2115 169.918 62.1807C169.91 62.1498 169.908 62.1176 169.913 62.0861C169.918 62.0545 169.929 62.0243 169.946 61.9974C169.964 61.9706 169.986 61.9476 170.013 61.9299C170.065 61.8947 170.129 61.8805 170.191 61.8902C170.253 61.8998 170.31 61.9326 170.349 61.982L173.507 66.2879C173.542 66.34 173.556 66.4036 173.547 66.4657C173.537 66.5279 173.504 66.5841 173.455 66.6231C173.43 66.6422 173.401 66.6558 173.37 66.6632C173.339 66.6706 173.307 66.6716 173.276 66.6661Z" fill="white"/>
<path d="M357.194 78.886C357.163 78.8813 357.133 78.8704 357.106 78.8541C357.079 78.8378 357.055 78.8163 357.036 78.791C357.016 78.7661 357.002 78.7373 356.993 78.7065C356.985 78.6756 356.983 78.6434 356.988 78.6119C356.993 78.5803 357.005 78.5501 357.022 78.5232C357.039 78.4964 357.062 78.4734 357.088 78.4557L361.403 75.2975C361.454 75.26 361.519 75.2443 361.582 75.2541C361.645 75.2639 361.701 75.2982 361.739 75.3496C361.777 75.4009 361.792 75.4651 361.782 75.528C361.773 75.5908 361.738 75.6473 361.687 75.6848L357.372 78.843C357.319 78.877 357.256 78.8922 357.194 78.886Z" fill="white"/>
<path d="M360.929 79.4648C360.867 79.4517 360.812 79.4182 360.772 79.3697L357.615 75.054C357.595 75.0291 357.581 75.0003 357.572 74.9695C357.564 74.9386 357.562 74.9064 357.567 74.8749C357.572 74.8433 357.583 74.8131 357.601 74.7862C357.618 74.7594 357.641 74.7364 357.667 74.7187C357.72 74.6835 357.783 74.6693 357.845 74.679C357.908 74.6887 357.964 74.7214 358.003 74.7708L361.16 79.0865C361.195 79.1387 361.209 79.2022 361.2 79.2644C361.19 79.3265 361.157 79.3828 361.108 79.4218C361.055 79.4558 360.992 79.4709 360.929 79.4648Z" fill="white"/>
<path d="M248.313 124.455C248.313 124.455 274.591 108.333 303.294 125.543" stroke="#FFD008" stroke-miterlimit="10" stroke-dasharray="2.83 2.83"/>
<path d="M470.542 189.056C470.542 189.056 494.204 209.413 480.205 234.454C470.253 252.248 450.623 255.568 440.132 256.012" stroke="#FFD008" stroke-miterlimit="10" stroke-dasharray="2.83 2.83"/>
<path d="M433.069 255.877L443.034 251.847L440.655 255.901L443.011 259.962L433.069 255.877Z" fill="#FFD008"/>
<path d="M456.819 148.764L482.101 131.498L490.775 146.574L456.819 148.764Z" fill="#FFD008"/>
<path d="M456.819 148.764L486.572 139.279L490.775 146.574L456.819 148.764Z" fill="#D8B10F"/>
<path d="M456.227 152.59L479.487 157.708L473.752 169.32L456.227 152.59Z" fill="#FFD008"/>
<path d="M456.227 152.59L476.597 163.561L473.752 169.32L456.227 152.59Z" fill="#D8B10F"/>
<path d="M27.5619 264.143C27.4289 265.001 27.044 265.801 26.4556 266.44C25.8673 267.08 25.1021 267.53 24.2567 267.736C23.4113 267.941 22.5237 267.891 21.7062 267.593C20.8887 267.295 20.178 266.762 19.6639 266.061C19.1498 265.36 18.8554 264.523 18.8181 263.655C18.7807 262.788 19.0019 261.929 19.4539 261.187C19.9058 260.445 20.5681 259.854 21.357 259.488C22.1459 259.122 23.026 258.998 23.886 259.131C25.0392 259.31 26.0743 259.938 26.7637 260.878C27.453 261.818 27.7402 262.993 27.5619 264.143Z" stroke="#FFD008" stroke-width="1.98425" stroke-miterlimit="10"/>
<path d="M18.3912 205.837C18.2598 206.698 17.8751 207.501 17.286 208.143C16.6969 208.786 15.9297 209.239 15.0818 209.446C14.2339 209.653 13.3434 209.604 12.523 209.305C11.7027 209.007 10.9895 208.472 10.4737 207.769C9.95796 207.066 9.66289 206.225 9.62588 205.355C9.58888 204.485 9.8116 203.623 10.2658 202.879C10.7201 202.136 11.3854 201.543 12.1775 201.178C12.9696 200.812 13.8528 200.689 14.7153 200.825C15.8685 201.003 16.9036 201.632 17.593 202.572C18.2824 203.512 18.5695 204.686 18.3912 205.837V205.837Z" stroke="#FFD008" stroke-width="1.98425" stroke-miterlimit="10"/>
<path d="M70.8103 246.39C70.7419 246.818 70.5479 247.217 70.2528 247.535C69.9576 247.853 69.5746 248.077 69.152 248.178C68.7293 248.279 68.2861 248.253 67.8781 248.103C67.4702 247.953 67.1159 247.686 66.8599 247.335C66.6039 246.984 66.4577 246.566 66.4398 246.132C66.4218 245.699 66.5329 245.27 66.7591 244.9C66.9853 244.529 67.3163 244.234 67.7105 244.052C68.1047 243.869 68.5443 243.807 68.9738 243.874C69.5509 243.966 70.0682 244.282 70.4123 244.754C70.7565 245.225 70.8996 245.814 70.8103 246.39Z" stroke="#FFD008" stroke-width="0.566929" stroke-miterlimit="10"/>
<path d="M52.2516 170.888L35.7142 152.877L28.0153 165.144L52.2516 170.888Z" fill="#FFD008"/>
<path d="M28.0154 165.144L31.6962 159.282L52.9928 171.003L28.0154 165.144Z" fill="#D8B10F"/>
<path d="M50.2405 175.443L21.6923 173.624L21.4347 185.802L50.2405 175.443Z" fill="#FFD008"/>
<path d="M21.4348 185.802L21.5735 179.159L50.2405 175.443L21.4348 185.802Z" fill="#D8B10F"/>
</svg>
