<svg width="426" height="296" viewBox="0 0 426 296" fill="none" xmlns="http://www.w3.org/2000/svg">
<path d="M75.6799 83.0885L175.718 55.698C181.388 94.705 205 124.565 218.218 138.595L88.3752 138.523L75.6799 83.0885Z" fill="#648E23"/>
<path d="M94.5969 84.7659C94.5969 84.7659 96.0243 92.5919 86.5897 95.6886L84.6898 87.6247L94.5969 84.7659Z" fill="#1D6820"/>
<path d="M169.153 63.2254L160.844 65.6228C161.777 67.6717 163.265 69.4215 165.141 70.677C167.018 71.9325 169.209 72.6444 171.471 72.7331L169.153 63.2254Z" fill="#1D6820"/>
<path d="M170.221 61.4484L170.534 62.9289C180.037 107.544 205.218 133.134 211.094 138.603L207.044 138.593C198.632 130.12 177.076 105.311 168.095 65.001L86.3823 88.6075L98.1841 138.528L95.2794 138.529L83.009 86.6503L170.221 61.4484Z" fill="#1D6820"/>
<path d="M139.623 118.096C147.17 115.831 155.307 116.638 162.245 120.339C169.182 124.04 174.353 130.332 176.62 137.831C176.66 138.087 176.759 138.333 176.819 138.585L160.764 138.573C160.716 138.268 160.607 137.963 160.511 137.606L159.189 133.235C157.76 128.498 154.701 126.804 149.992 128.215L146.532 129.259L144.85 123.687L138.692 125.536L140.374 131.109L130.434 134.083L131.775 138.512L119.527 138.507C120.871 133.696 123.419 129.3 126.933 125.73C130.448 122.16 134.814 119.534 139.623 118.096Z" fill="#1D6820"/>
<path d="M38.8325 98.5154L117.001 43.4071C129.328 77.4783 190.133 122.183 213.806 138.601L63.9911 138.517C53.4423 126.657 44.9415 113.141 38.8325 98.5154Z" fill="#78B12C"/>
<path d="M44.9486 97.8197L114.384 50.4875L115.066 51.7392C115.366 52.2959 144.822 106.043 204.95 138.599L199.686 138.598C146.618 108.338 118.213 62.2742 113.504 54.1771L48.048 98.8035C55.8857 119.712 67.0405 132.455 73.425 138.519L69.7002 138.519C62.8725 131.629 52.6535 118.85 45.2573 98.7574L44.9486 97.8197Z" fill="#1D6820"/>
<path d="M56.928 91.9701C56.928 91.9701 60.3368 103.078 48.7938 104.15L46.2792 97.5912L56.928 91.9701Z" fill="#1D6820"/>
<path d="M113.837 52.9379L106.428 59.0178C106.428 59.0178 111.148 63.3097 118.705 60.3058L113.837 52.9379Z" fill="#1D6820"/>
<path d="M108.646 127.513C111.863 123.741 116.066 120.929 120.789 119.388C125.512 117.847 130.57 117.638 135.4 118.783C140.231 119.929 144.645 122.384 148.152 125.877C151.66 129.37 154.122 133.763 155.267 138.568L145.195 138.565C144.791 138.07 144.34 137.615 143.849 137.206L141.353 135.101L144.773 131.084L140.343 127.351L136.923 131.367L129.776 125.352L124.945 131.019L132.278 137.196L131.124 138.553L127.297 138.549L126.213 137.632C123.123 135.027 120.253 135.315 117.559 138.473L117.499 138.543L103.013 138.536C103.993 134.474 105.923 130.697 108.646 127.513Z" fill="#1D6820"/>
<path d="M67.9915 94.1726C68.1253 95.0273 68.511 95.8229 69.0999 96.4587C69.6888 97.0946 70.4544 97.5422 71.3 97.7449C72.1455 97.9477 73.0329 97.8964 73.8501 97.5977C74.6672 97.299 75.3774 96.7662 75.8907 96.0667C76.4041 95.3672 76.6976 94.5324 76.7341 93.6679C76.7706 92.8034 76.5486 91.948 76.0959 91.2099C75.6433 90.4718 74.9805 89.8841 74.1913 89.5211C73.4021 89.1582 72.522 89.0363 71.6622 89.1709C70.5093 89.3514 69.4749 89.9797 68.7865 90.9177C68.0981 91.8557 67.8121 93.0266 67.9915 94.1726Z" stroke="#FFD008" stroke-width="1.98425" stroke-miterlimit="10"/>
<path d="M302.015 44.1094C302.15 44.9634 302.537 45.7577 303.127 46.3921C303.717 47.0265 304.483 47.4725 305.329 47.6737C306.174 47.8749 307.061 47.8223 307.877 47.5225C308.694 47.2228 309.403 46.6894 309.915 45.9896C310.427 45.2899 310.72 44.4553 310.756 43.5912C310.792 42.727 310.569 41.8723 310.116 41.1348C309.663 40.3973 309.001 39.8102 308.212 39.4476C307.423 39.0851 306.543 38.9634 305.684 39.0979C305.112 39.1874 304.563 39.3881 304.07 39.6885C303.576 39.989 303.146 40.3832 302.805 40.8487C302.464 41.3143 302.219 41.8419 302.083 42.4014C301.948 42.9609 301.924 43.5413 302.015 44.1094Z" stroke="#FFD008" stroke-width="1.98425" stroke-miterlimit="10"/>
<path d="M150.928 47.9277C151.06 48.785 151.445 49.5836 152.034 50.2224C152.624 50.8612 153.391 51.3114 154.238 51.5161C155.086 51.7209 155.976 51.6709 156.795 51.3725C157.615 51.0741 158.328 50.5407 158.844 49.8398C159.359 49.139 159.654 48.3022 159.692 47.4353C159.729 46.5685 159.507 45.7105 159.053 44.9701C158.6 44.2297 157.936 43.6401 157.144 43.276C156.353 42.9118 155.471 42.7895 154.608 42.9244C154.036 43.0126 153.488 43.2121 152.993 43.5114C152.498 43.8107 152.068 44.204 151.726 44.6687C151.384 45.1335 151.137 45.6606 151 46.2198C150.864 46.779 150.839 47.3594 150.928 47.9277V47.9277Z" stroke="#FFD008" stroke-width="1.98425" stroke-miterlimit="10"/>
<path d="M53.7803 126.955C52.5799 127.143 51.4553 126.328 51.2685 125.134C51.0817 123.941 51.9034 122.821 53.1038 122.633C54.3042 122.445 55.4288 123.26 55.6156 124.454C55.8024 125.647 54.9807 126.767 53.7803 126.955Z" stroke="#FFD008" stroke-width="0.566929" stroke-miterlimit="10"/>
<path d="M143.228 227.778C143.296 228.205 143.491 228.601 143.786 228.918C144.082 229.234 144.465 229.457 144.888 229.556C145.31 229.656 145.753 229.629 146.161 229.479C146.569 229.329 146.923 229.061 147.179 228.711C147.434 228.361 147.58 227.944 147.597 227.512C147.615 227.08 147.503 226.653 147.277 226.285C147.05 225.916 146.719 225.623 146.325 225.442C145.93 225.261 145.491 225.2 145.061 225.267C144.484 225.36 143.968 225.676 143.624 226.147C143.28 226.617 143.138 227.204 143.228 227.778Z" stroke="#FFD008" stroke-width="0.566929" stroke-miterlimit="10"/>
<path d="M277.491 61.3807C277.558 61.8081 277.75 62.206 278.045 62.524C278.339 62.842 278.722 63.0658 279.145 63.1672C279.568 63.2686 280.011 63.243 280.42 63.0936C280.829 62.9442 281.184 62.6778 281.44 62.328C281.697 61.9782 281.844 61.5608 281.862 61.1284C281.88 60.6961 281.769 60.2684 281.543 59.8992C281.317 59.5301 280.985 59.2362 280.591 59.0547C280.196 58.8732 279.756 58.8122 279.326 58.8795C278.75 58.9698 278.232 59.284 277.888 59.753C277.544 60.2221 277.401 60.8076 277.491 61.3807Z" stroke="#FFD008" stroke-width="0.566929" stroke-miterlimit="10"/>
<path d="M46.1977 213.857C46.2646 214.284 46.4575 214.682 46.752 215C47.0464 215.318 47.4292 215.542 47.852 215.644C48.2748 215.745 48.7185 215.719 49.127 215.57C49.5356 215.421 49.8907 215.154 50.1474 214.804C50.404 214.455 50.5508 214.037 50.569 213.605C50.5873 213.172 50.4762 212.745 50.2499 212.376C50.0236 212.006 49.6922 211.713 49.2976 211.531C48.903 211.35 48.4629 211.289 48.033 211.356C47.4577 211.449 46.9422 211.763 46.5985 212.232C46.2548 212.7 46.1107 213.284 46.1977 213.857V213.857Z" stroke="#FFD008" stroke-width="0.566929" stroke-miterlimit="10"/>
<path d="M382.172 87.9083C382.239 88.3357 382.432 88.7336 382.727 89.0516C383.021 89.3696 383.404 89.5934 383.827 89.6948C384.249 89.7962 384.693 89.7706 385.102 89.6212C385.51 89.4718 385.865 89.2054 386.122 88.8556C386.379 88.5058 386.525 88.0883 386.544 87.656C386.562 87.2237 386.451 86.7959 386.225 86.4268C385.998 86.0577 385.667 85.7638 385.272 85.5823C384.878 85.4008 384.438 85.3398 384.008 85.4071C383.431 85.4973 382.914 85.8115 382.57 86.2806C382.226 86.7497 382.083 87.3352 382.172 87.9083Z" stroke="#FFD008" stroke-width="0.566929" stroke-miterlimit="10"/>
<path d="M76.4859 162.28C76.5475 162.266 76.6029 162.233 76.6431 162.184C76.6783 162.132 76.6925 162.069 76.6828 162.007C76.6731 161.945 76.6402 161.889 76.5908 161.851L72.2751 158.722C72.2501 158.702 72.2213 158.688 72.1904 158.68C72.1595 158.671 72.1272 158.67 72.0956 158.675C72.064 158.68 72.0337 158.691 72.0068 158.708C71.9799 158.725 71.9568 158.748 71.9392 158.775C71.9192 158.799 71.9046 158.826 71.8963 158.856C71.888 158.886 71.8862 158.918 71.891 158.948C71.8958 158.979 71.9071 159.008 71.9241 159.034C71.9412 159.06 71.9636 159.082 71.9899 159.099L76.2874 162.24C76.3463 162.277 76.4171 162.291 76.4859 162.28Z" fill="white"/>
<path d="M72.7513 162.864C72.813 162.851 72.8683 162.817 72.9085 162.769L76.0603 158.462C76.0952 158.411 76.1093 158.35 76.0999 158.289C76.0905 158.229 76.0581 158.175 76.0096 158.137C75.9847 158.117 75.9558 158.103 75.9249 158.095C75.894 158.087 75.8617 158.085 75.8301 158.09C75.7985 158.095 75.7682 158.106 75.7413 158.124C75.7144 158.141 75.6913 158.163 75.6737 158.19L72.5203 162.487C72.5003 162.512 72.4857 162.541 72.4774 162.572C72.4691 162.603 72.4674 162.635 72.4723 162.666C72.4772 162.698 72.4887 162.728 72.506 162.754C72.5233 162.781 72.5459 162.804 72.5726 162.821C72.625 162.857 72.6885 162.872 72.7513 162.864Z" fill="white"/>
<path d="M265.466 244.837C265.528 244.825 265.584 244.791 265.623 244.742C265.643 244.717 265.658 244.688 265.666 244.657C265.675 244.627 265.676 244.594 265.671 244.563C265.667 244.532 265.655 244.501 265.638 244.475C265.621 244.448 265.598 244.425 265.571 244.408L261.254 241.269C261.228 241.251 261.2 241.238 261.169 241.23C261.138 241.223 261.106 241.222 261.075 241.226C261.044 241.231 261.014 241.242 260.987 241.259C260.96 241.275 260.937 241.297 260.918 241.322C260.899 241.347 260.886 241.376 260.878 241.407C260.871 241.437 260.87 241.469 260.875 241.5C260.879 241.531 260.89 241.561 260.907 241.587C260.923 241.614 260.945 241.637 260.97 241.656L265.327 244.788C265.368 244.816 265.416 244.833 265.466 244.837Z" fill="white"/>
<path d="M261.732 245.421C261.793 245.408 261.849 245.374 261.889 245.326L265.048 241.068C265.068 241.043 265.083 241.014 265.091 240.984C265.1 240.953 265.101 240.921 265.096 240.889C265.092 240.858 265.08 240.828 265.063 240.801C265.046 240.774 265.023 240.751 264.996 240.734C264.944 240.699 264.88 240.685 264.818 240.695C264.756 240.704 264.699 240.737 264.66 240.786L261.508 245.094C261.473 245.146 261.459 245.209 261.469 245.271C261.478 245.333 261.511 245.389 261.561 245.428C261.617 245.443 261.677 245.441 261.732 245.421Z" fill="white"/>
<path d="M411.028 143.189C411.058 143.185 411.087 143.175 411.113 143.159C411.138 143.143 411.16 143.121 411.176 143.095C411.196 143.071 411.21 143.043 411.219 143.013C411.227 142.984 411.229 142.952 411.224 142.922C411.219 142.891 411.208 142.862 411.191 142.836C411.174 142.81 411.151 142.788 411.125 142.771L406.768 139.639C406.717 139.602 406.652 139.586 406.589 139.596C406.526 139.606 406.47 139.64 406.432 139.692C406.395 139.743 406.379 139.807 406.389 139.869C406.399 139.932 406.433 139.988 406.485 140.025L410.81 143.152C410.839 143.178 410.875 143.195 410.914 143.201C410.953 143.208 410.992 143.203 411.028 143.189Z" fill="white"/>
<path d="M407.284 143.775C407.315 143.771 407.346 143.761 407.373 143.744C407.4 143.728 407.423 143.706 407.441 143.68L410.594 139.382C410.614 139.357 410.629 139.329 410.637 139.298C410.645 139.267 410.647 139.235 410.642 139.204C410.637 139.172 410.626 139.142 410.609 139.115C410.591 139.089 410.569 139.066 410.542 139.048C410.491 139.014 410.429 139 410.369 139.009C410.308 139.019 410.253 139.051 410.216 139.099L407.05 143.379C407.025 143.417 407.011 143.461 407.011 143.506C407.01 143.552 407.023 143.596 407.047 143.635C407.071 143.673 407.106 143.704 407.147 143.724C407.188 143.743 407.234 143.751 407.279 143.745L407.284 143.775Z" fill="white"/>
<path d="M119.282 217.51C119.343 217.497 119.399 217.464 119.439 217.415C119.474 217.363 119.488 217.3 119.479 217.238C119.469 217.176 119.436 217.12 119.387 217.081L115.071 213.953C115.046 213.933 115.017 213.919 114.986 213.91C114.955 213.902 114.923 213.901 114.891 213.906C114.86 213.911 114.83 213.922 114.803 213.939C114.776 213.956 114.753 213.979 114.735 214.006C114.7 214.056 114.686 214.118 114.696 214.178C114.705 214.238 114.737 214.292 114.786 214.33L119.103 217.468C119.156 217.502 119.219 217.517 119.282 217.51Z" fill="white"/>
<path d="M115.547 218.095C115.609 218.082 115.664 218.048 115.704 218L118.856 213.693C118.891 213.642 118.905 213.581 118.896 213.52C118.886 213.46 118.854 213.406 118.806 213.369C118.781 213.349 118.752 213.334 118.721 213.326C118.69 213.318 118.658 213.316 118.626 213.321C118.594 213.326 118.564 213.338 118.537 213.355C118.51 213.372 118.487 213.395 118.47 213.421L115.336 217.716C115.301 217.768 115.287 217.831 115.296 217.893C115.306 217.955 115.339 218.011 115.388 218.05C115.435 218.08 115.491 218.096 115.547 218.095Z" fill="white"/>
<path d="M354.889 246.174C354.92 246.169 354.95 246.159 354.977 246.142C355.004 246.126 355.028 246.104 355.046 246.079C355.081 246.027 355.096 245.963 355.086 245.901C355.076 245.839 355.043 245.783 354.994 245.745L350.678 242.616C350.626 242.581 350.562 242.567 350.5 242.577C350.438 242.587 350.381 242.619 350.342 242.669C350.322 242.694 350.307 242.722 350.299 242.753C350.291 242.784 350.289 242.816 350.294 242.847C350.299 242.879 350.311 242.909 350.328 242.936C350.345 242.962 350.368 242.985 350.394 243.003L354.713 246.151C354.74 246.166 354.769 246.176 354.799 246.18C354.829 246.184 354.86 246.182 354.889 246.174Z" fill="white"/>
<path d="M351.154 246.758C351.186 246.754 351.216 246.743 351.243 246.727C351.27 246.711 351.293 246.689 351.311 246.663L354.465 242.366C354.483 242.34 354.497 242.312 354.504 242.281C354.512 242.251 354.513 242.219 354.508 242.188C354.503 242.157 354.492 242.127 354.476 242.1C354.459 242.073 354.438 242.05 354.412 242.032C354.387 242.013 354.358 242 354.327 241.993C354.297 241.985 354.265 241.984 354.234 241.989C354.202 241.994 354.173 242.005 354.146 242.021C354.119 242.037 354.095 242.059 354.077 242.084L350.923 246.382C350.903 246.407 350.888 246.435 350.88 246.466C350.872 246.497 350.87 246.529 350.875 246.56C350.88 246.592 350.892 246.622 350.909 246.649C350.926 246.675 350.949 246.698 350.975 246.716C351 246.735 351.029 246.749 351.06 246.756C351.091 246.764 351.123 246.764 351.154 246.758Z" fill="white"/>
<path d="M338.272 54.0104C338.304 54.0067 338.334 53.9964 338.361 53.9799C338.388 53.9635 338.412 53.9415 338.429 53.9153C338.45 53.8905 338.464 53.8618 338.472 53.831C338.481 53.8003 338.482 53.7682 338.478 53.7367C338.473 53.7053 338.461 53.6752 338.444 53.6485C338.427 53.6217 338.404 53.5989 338.377 53.5814L334.061 50.4529C334.01 50.4156 333.946 50.4002 333.883 50.4101C333.82 50.4199 333.763 50.4542 333.726 50.5055C333.688 50.5568 333.672 50.6208 333.682 50.6834C333.692 50.746 333.726 50.8022 333.778 50.8395L338.094 53.9679C338.119 53.9868 338.148 54.0004 338.178 54.0077C338.209 54.015 338.241 54.0159 338.272 54.0104Z" fill="white"/>
<path d="M334.538 54.5949C334.569 54.5907 334.599 54.5801 334.626 54.5637C334.653 54.5473 334.677 54.5256 334.695 54.4999L337.848 50.2024C337.868 50.1775 337.883 50.1488 337.891 50.1181C337.899 50.0873 337.901 50.0552 337.896 50.0238C337.891 49.9923 337.88 49.9623 337.863 49.9355C337.845 49.9088 337.823 49.8859 337.796 49.8684C337.744 49.8334 337.68 49.8194 337.618 49.8292C337.555 49.8389 337.499 49.8717 337.46 49.921L334.307 54.2185C334.271 54.2706 334.257 54.3339 334.267 54.3958C334.277 54.4577 334.309 54.5137 334.359 54.5525C334.384 54.5714 334.413 54.5849 334.444 54.5922C334.475 54.5996 334.507 54.6005 334.538 54.5949Z" fill="white"/>
<path d="M150.648 67.1589C150.68 67.1541 150.709 67.1432 150.736 67.1269C150.763 67.1106 150.787 67.0891 150.806 67.0638C150.826 67.039 150.84 67.0103 150.848 66.9795C150.857 66.9488 150.858 66.9167 150.854 66.8852C150.849 66.8538 150.837 66.8237 150.82 66.797C150.803 66.7702 150.78 66.7474 150.753 66.7298L146.436 63.5916C146.385 63.5543 146.32 63.5389 146.257 63.5487C146.194 63.5586 146.138 63.5929 146.1 63.6442C146.062 63.6954 146.047 63.7594 146.057 63.8221C146.066 63.8847 146.101 63.9408 146.152 63.9781L150.47 67.1164C150.523 67.1502 150.586 67.1651 150.648 67.1589Z" fill="white"/>
<path d="M146.914 67.7434C146.975 67.7302 147.031 67.6967 147.071 67.6484L150.223 63.341C150.243 63.3162 150.257 63.2875 150.266 63.2567C150.274 63.226 150.276 63.1939 150.271 63.1624C150.266 63.131 150.254 63.1009 150.237 63.0742C150.22 63.0474 150.197 63.0246 150.17 63.0071C150.118 62.9721 150.055 62.9581 149.992 62.9678C149.93 62.9776 149.874 63.0104 149.835 63.0596L146.683 67.367C146.647 67.419 146.633 67.4824 146.643 67.5443C146.653 67.6062 146.686 67.6622 146.735 67.701C146.788 67.7347 146.851 67.7497 146.914 67.7434Z" fill="white"/>
<path d="M259.564 112.332C259.564 112.332 233.273 96.3236 204.589 113.531" stroke="#FFD008" stroke-miterlimit="10" stroke-dasharray="2.83 2.83"/>
<path d="M37.4182 177.168C37.4182 177.168 13.7781 197.5 27.8007 222.421C37.769 240.129 57.4002 243.395 67.8914 243.816" stroke="#FFD008" stroke-miterlimit="10" stroke-dasharray="2.83 2.83"/>
<path d="M74.9535 243.666L64.986 239.672L67.3685 243.706L65.0167 247.757L74.9535 243.666Z" fill="#FFD008"/>
<path d="M51.1002 136.993L25.8037 119.843L17.1453 134.882L51.1002 136.993Z" fill="#FFD008"/>
<path d="M51.1001 136.993L21.3403 127.605L17.1452 134.882L51.1001 136.993Z" fill="#D8B10F"/>
<path d="M51.6968 140.803L28.4433 145.953L34.1896 157.509L51.6968 140.803Z" fill="#FFD008"/>
<path d="M51.6968 140.803L31.339 151.778L34.1896 157.509L51.6968 140.803Z" fill="#D8B10F"/>
</svg>
