<svg width="46" height="37" viewBox="0 0 46 37" fill="none" xmlns="http://www.w3.org/2000/svg">
<path d="M14.8781 18.4541C14.8781 19.4345 14.1035 20.1818 13.1212 20.1818C12.3865 20.1818 11.8434 19.764 11.8434 18.9765C11.8434 17.9961 12.6021 17.2086 13.5764 17.2086C14.3191 17.2086 14.8781 17.6666 14.8781 18.4541ZM6.42882 14.5568H6.05347C5.93368 14.5568 5.81389 14.6372 5.79792 14.7738L5.45451 16.9193L6.10938 16.8952C6.98785 16.8952 7.66667 16.7747 7.82639 15.7541C8.01007 14.6773 7.33125 14.5568 6.42882 14.5568ZM29.1094 14.5568H28.75C28.6063 14.5568 28.5104 14.6372 28.4944 14.7738L28.159 16.9193L28.7979 16.8952C29.8361 16.8952 30.5549 16.6541 30.5549 15.4488C30.5469 14.597 29.7882 14.5568 29.1094 14.5568ZM46 4.13449V32.4202C46 34.5497 44.283 36.2773 42.1667 36.2773H3.83333C1.71701 36.2773 0 34.5497 0 32.4202V4.13449C0 2.00502 1.71701 0.277344 3.83333 0.277344H42.1667C44.283 0.277344 46 2.00502 46 4.13449ZM10.2462 15.0148C10.2462 13.3273 8.95243 12.7648 7.475 12.7648H4.28056C4.0809 12.7648 3.88125 12.9256 3.86528 13.1425L2.55556 21.347C2.5316 21.5077 2.65139 21.6684 2.81111 21.6684H4.32847C4.5441 21.6684 4.74375 21.4354 4.76771 21.2104L5.12708 19.0729C5.20694 18.4943 6.18125 18.6952 6.56458 18.6952C8.84861 18.6952 10.2462 17.3291 10.2462 15.0148ZM16.9705 15.722H15.4531C15.1497 15.722 15.1337 16.1639 15.1177 16.3809C14.6545 15.6979 13.9837 15.5773 13.225 15.5773C11.2684 15.5773 9.775 17.305 9.775 19.2095C9.775 20.7765 10.7493 21.797 12.3066 21.797C13.0253 21.797 13.9198 21.4032 14.4229 20.8407C14.383 20.9613 14.3431 21.2184 14.3431 21.339C14.3431 21.5238 14.4229 21.6604 14.5986 21.6604H15.9722C16.1878 21.6604 16.3715 21.4273 16.4115 21.2023L17.226 16.0354C17.25 15.8827 17.1302 15.722 16.9705 15.722ZM20.2049 23.589L25.292 16.1479C25.3319 16.1077 25.3319 16.0675 25.3319 16.0113C25.3319 15.8747 25.2122 15.73 25.0764 15.73H23.5431C23.4073 15.73 23.2635 15.8104 23.1837 15.9309L21.0674 19.0648L20.1889 16.0515C20.125 15.8747 19.9493 15.73 19.7497 15.73H18.2563C18.1205 15.73 18.0007 15.8747 18.0007 16.0113C18.0007 16.1077 19.558 20.5756 19.6938 21.0014C19.4781 21.3068 18.0566 23.2997 18.0566 23.5407C18.0566 23.6854 18.1764 23.7979 18.3122 23.7979H19.8455C19.9892 23.7898 20.125 23.7095 20.2049 23.589ZM32.9267 15.0148C32.9267 13.3273 31.633 12.7648 30.1556 12.7648H26.9851C26.7694 12.7648 26.5698 12.9256 26.5458 13.1425L25.2521 21.339C25.2361 21.4997 25.3559 21.6604 25.5076 21.6604H27.1448C27.3045 21.6604 27.4243 21.5398 27.4642 21.4032L27.8236 19.0729C27.9035 18.4943 28.8778 18.6952 29.2611 18.6952C31.5292 18.6952 32.9267 17.3291 32.9267 15.0148ZM39.651 15.722H38.1337C37.8302 15.722 37.8142 16.1639 37.7903 16.3809C37.351 15.6979 36.6722 15.5773 35.8976 15.5773C33.941 15.5773 32.4476 17.305 32.4476 19.2095C32.4476 20.7765 33.4219 21.797 34.9792 21.797C35.7219 21.797 36.6163 21.4032 37.0955 20.8407C37.0715 20.9613 37.0156 21.2184 37.0156 21.339C37.0156 21.5238 37.0955 21.6604 37.2712 21.6604H38.6528C38.8684 21.6604 39.0521 21.4273 39.092 21.2023L39.9066 16.0354C39.9306 15.8827 39.8108 15.722 39.651 15.722ZM43.4444 13.0461C43.4444 12.8854 43.3247 12.7648 43.1889 12.7648H41.7115C41.5917 12.7648 41.4719 12.8613 41.4559 12.9818L40.1622 21.339L40.1382 21.3791C40.1382 21.5238 40.258 21.6604 40.4177 21.6604H41.7354C41.9351 21.6604 42.1347 21.4273 42.1507 21.2023L43.4444 13.0702V13.0461ZM36.2569 17.2086C35.2826 17.2086 34.524 17.9881 34.524 18.9765C34.524 19.7559 35.083 20.1818 35.8177 20.1818C36.776 20.1818 37.5507 19.4425 37.5507 18.4541C37.5587 17.6666 36.9997 17.2086 36.2569 17.2086Z" fill="#FFCA19"/>
</svg>
