<svg width="62" height="30" viewBox="0 0 62 30" fill="none" xmlns="http://www.w3.org/2000/svg">
<path d="M46.0068 1.53044e-07H16.0002C13.527 -0.000353101 11.0921 0.610833 8.91222 1.77915C6.73237 2.94746 4.87521 4.63664 3.5061 6.69632C2.13699 8.75599 1.2984 11.1222 1.065 13.5844C0.831593 16.0466 1.21062 18.5282 2.16832 20.8085C3.12602 23.0887 4.63269 25.0968 6.55419 26.6539C8.47568 28.211 10.7524 29.2688 13.1816 29.7332C15.6108 30.1976 18.1172 30.0541 20.4775 29.3155C22.8378 28.577 24.979 27.2662 26.7102 25.5H35.2902C37.0212 27.266 39.1621 28.5767 41.5221 29.3153C43.8821 30.0539 46.3882 30.1976 48.8172 29.7335C51.2462 29.2695 53.5228 28.2121 55.4443 26.6554C57.3658 25.0988 58.8727 23.0913 59.8308 20.8115C60.7889 18.5317 61.1685 16.0504 60.9358 13.5885C60.7031 11.1265 59.8653 8.76031 58.497 6.70042C57.1287 4.64052 55.2724 2.95087 53.0932 1.78186C50.9141 0.612843 48.4797 0.000728923 46.0068 1.53044e-07ZM24.2502 16.125C24.2502 16.4234 24.1317 16.7095 23.9207 16.9205C23.7097 17.1315 23.4236 17.25 23.1252 17.25H18.2502V22.125C18.2502 22.4234 18.1317 22.7095 17.9207 22.9205C17.7097 23.1315 17.4236 23.25 17.1252 23.25H14.8752C14.5768 23.25 14.2907 23.1315 14.0797 22.9205C13.8687 22.7095 13.7502 22.4234 13.7502 22.125V17.25H8.87519C8.57682 17.25 8.29068 17.1315 8.0797 16.9205C7.86872 16.7095 7.75019 16.4234 7.75019 16.125V13.875C7.75019 13.5766 7.86872 13.2905 8.0797 13.0795C8.29068 12.8685 8.57682 12.75 8.87519 12.75H13.7502V7.875C13.7502 7.57663 13.8687 7.29048 14.0797 7.07951C14.2907 6.86853 14.5768 6.75 14.8752 6.75H17.1252C17.4236 6.75 17.7097 6.86853 17.9207 7.07951C18.1317 7.29048 18.2502 7.57663 18.2502 7.875V12.75H23.1252C23.4236 12.75 23.7097 12.8685 23.9207 13.0795C24.1317 13.2905 24.2502 13.5766 24.2502 13.875V16.125ZM44.5002 23.25C43.7585 23.25 43.0335 23.0301 42.4168 22.618C41.8001 22.206 41.3195 21.6203 41.0356 20.9351C40.7518 20.2498 40.6776 19.4958 40.8222 18.7684C40.9669 18.041 41.3241 17.3728 41.8485 16.8484C42.373 16.3239 43.0412 15.9667 43.7686 15.8221C44.496 15.6774 45.25 15.7516 45.9353 16.0355C46.6205 16.3193 47.2062 16.7999 47.6182 17.4166C48.0303 18.0333 48.2502 18.7583 48.2502 19.5C48.2502 20.4946 47.8551 21.4484 47.1518 22.1516C46.4486 22.8549 45.4948 23.25 44.5002 23.25ZM50.5002 14.25C49.7585 14.25 49.0335 14.0301 48.4168 13.618C47.8001 13.206 47.3195 12.6203 47.0356 11.9351C46.7518 11.2498 46.6776 10.4958 46.8222 9.76841C46.9669 9.04098 47.3241 8.3728 47.8485 7.84835C48.373 7.3239 49.0412 6.96675 49.7686 6.82205C50.496 6.67736 51.25 6.75162 51.9353 7.03545C52.6205 7.31928 53.2062 7.79993 53.6182 8.41661C54.0303 9.0333 54.2502 9.75832 54.2502 10.5C54.2502 11.4946 53.8551 12.4484 53.1518 13.1517C52.4486 13.8549 51.4948 14.25 50.5002 14.25Z" fill="#FFCA19"/>
</svg>
