<svg width="35" height="37" viewBox="0 0 35 37" fill="none" xmlns="http://www.w3.org/2000/svg">
<path d="M28.522 24.4967C28.6265 25.1945 28.406 25.4898 28.1831 25.4898C27.9602 25.4898 27.6352 25.2038 27.2777 24.6432C26.9201 24.0827 26.7925 23.4547 26.9689 23.1337C27.0341 23.0222 27.1398 22.9401 27.2639 22.9045C27.388 22.869 27.521 22.8828 27.6352 22.943C28.2272 23.1686 28.4593 24.078 28.522 24.4967ZM25.2416 26.0271C25.952 26.6295 26.1703 27.3436 25.7942 27.8483C25.6799 27.9898 25.534 28.1025 25.3682 28.1773C25.2025 28.252 25.0216 28.2867 24.84 28.2786C24.4424 28.2792 24.0571 28.1401 23.7512 27.8855C23.1058 27.318 22.9154 26.4016 23.338 25.8806C23.431 25.774 23.5472 25.6901 23.6775 25.6353C23.8079 25.5804 23.949 25.5562 24.0901 25.5643C24.5166 25.5769 24.9247 25.7409 25.2416 26.0271ZM24.053 31.8418C27.1152 31.8418 30.4373 32.8931 34.1147 36.1586C34.4838 36.4843 34.9737 36.0796 34.6533 35.6725C31.0386 31.0999 27.6886 30.23 24.3618 29.495C20.2851 28.5949 18.1864 26.2946 16.7261 23.771C16.4336 23.2686 16.3036 23.357 16.2781 24.0036C16.2475 24.9614 16.3136 25.9199 16.4754 26.8644C16.3129 26.8644 16.1457 26.8644 15.9809 26.8644C13.8917 26.8644 11.8494 26.2438 10.1123 25.0809C8.37522 23.9181 7.02131 22.2653 6.22181 20.3315C5.42231 18.3978 5.21313 16.27 5.62071 14.2171C6.02829 12.1643 7.03433 10.2786 8.51162 8.79859C9.9889 7.31857 11.8711 6.31066 13.9201 5.90233C15.9692 5.49399 18.0931 5.70356 20.0232 6.50454C21.9534 7.30553 23.6031 8.66194 24.7638 10.4023C25.9245 12.1426 26.5441 14.1886 26.5441 16.2817C26.5451 16.692 26.5226 17.102 26.4767 17.5098C25.3637 17.3715 24.2393 17.3512 23.1221 17.4493C22.7204 17.4819 22.7761 17.6819 23.0803 17.7238C26.5626 18.3564 28.9701 20.5148 29.518 24.4688C29.5207 24.4886 29.5294 24.5071 29.5429 24.5218C29.5564 24.5366 29.5741 24.5468 29.5936 24.5511C29.6131 24.5554 29.6334 24.5536 29.6519 24.546C29.6703 24.5383 29.686 24.5252 29.6967 24.5083C31.5083 21.4745 32.2666 17.9253 31.8535 14.4144C31.4405 10.9035 29.8792 7.62822 27.4132 5.09951C24.9473 2.5708 21.7153 0.930826 18.2215 0.435382C14.7276 -0.0600614 11.1683 0.616888 8.09873 2.36064C5.02917 4.10439 2.62195 6.8169 1.25254 10.0751C-0.116861 13.3332 -0.371446 16.9538 0.528499 20.3722C1.42844 23.7905 3.43232 26.8143 6.22755 28.972C9.02278 31.1296 12.4522 32.2998 15.9809 32.3C18.321 32.2954 20.6426 31.8395 24.053 31.8395V31.8418Z" fill="#FFCA19"/>
</svg>
