<svg width="180" height="166" viewBox="0 0 180 166" fill="none" xmlns="http://www.w3.org/2000/svg">
<path fill-rule="evenodd" clip-rule="evenodd" d="M139.941 157.549C160.605 142.246 174 117.687 174 90C174 43.6081 136.392 6 90 6C75.8319 6 62.483 9.50768 50.7745 15.702C49.4925 14.0473 48.0075 12.5579 46.3568 11.2712C59.2835 4.08996 74.1641 0 90 0C139.706 0 180 40.2944 180 90C180 121.311 164.011 148.887 139.752 165.01C139.916 163.362 140 161.691 140 160C140 159.178 139.98 158.361 139.941 157.549ZM40.059 157.549C19.3955 142.246 6 117.687 6 90C6 75.8319 9.50768 62.483 15.702 50.7745C14.0473 49.4925 12.5579 48.0075 11.2712 46.3568C4.08996 59.2835 0 74.1641 0 90C0 121.311 15.9891 148.887 40.2479 165.01C40.0839 163.362 40 161.691 40 160C40 159.178 40.0198 158.361 40.059 157.549Z" fill="#C4C4C4"/>
</svg>
