<svg width="349" height="228" viewBox="0 0 349 228" fill="none" xmlns="http://www.w3.org/2000/svg">
<path d="M238.005 47.6814L194.24 35.6641C191.745 52.7715 181.402 65.8664 175.612 72.019L232.43 71.9934L238.005 47.6814Z" fill="#648E23"/>
<path d="M229.727 48.4163C229.727 48.4163 229.099 51.8485 233.227 53.2071L234.061 49.6705L229.727 48.4163Z" fill="#1D6820"/>
<path d="M197.11 38.9658L200.746 40.0177C200.337 40.9163 199.685 41.6837 198.864 42.2342C198.042 42.7847 197.082 43.0968 196.092 43.1356L197.11 38.9658Z" fill="#1D6820"/>
<path d="M196.644 38.1863L196.506 38.8356C192.331 58.4024 181.304 69.6244 178.73 72.0229L180.502 72.0187C184.186 68.3028 193.628 57.4231 197.573 39.7445L233.32 50.1013L228.138 71.9947L229.409 71.9957L234.797 49.2431L196.644 38.1863Z" fill="#1D6820"/>
<path d="M210.012 63.0321C206.71 62.0386 203.149 62.3921 200.112 64.015C197.075 65.6378 194.81 68.3971 193.815 71.686C193.798 71.798 193.754 71.906 193.728 72.0166L200.753 72.0118C200.774 71.8783 200.822 71.7445 200.864 71.5879L201.444 69.6708C202.072 67.5935 203.411 66.8505 205.471 67.4696L206.984 67.9279L207.722 65.484L210.416 66.2953L209.678 68.7392L214.027 70.0442L213.438 71.9864L218.798 71.9849C218.212 69.8747 217.098 67.9466 215.562 66.3809C214.025 64.8151 212.116 63.6629 210.012 63.0321Z" fill="#1D6820"/>
<path d="M254.124 54.4488L219.938 30.2761C214.532 45.2184 187.908 64.8224 177.543 72.0219L243.1 71.9915C247.72 66.7905 251.445 60.863 254.124 54.4488Z" fill="#78B12C"/>
<path d="M251.448 54.1435L221.081 33.3816L220.782 33.9305C220.651 34.1747 207.742 57.7458 181.419 72.0214L183.722 72.0211C206.955 58.752 219.401 38.5508 221.464 34.9998L250.091 54.5748C246.654 63.7447 241.768 69.333 238.972 71.9922L240.602 71.9921C243.592 68.9706 248.068 63.3666 251.312 54.5547L251.448 54.1435Z" fill="#1D6820"/>
<path d="M246.208 51.5777C246.208 51.5777 244.712 56.4492 249.763 56.92L250.866 54.0434L246.208 51.5777Z" fill="#1D6820"/>
<path d="M221.32 34.4563L224.56 37.1232C224.56 37.1232 222.492 39.0053 219.187 37.6875L221.32 34.4563Z" fill="#1D6820"/>
<path d="M223.564 67.1635C222.158 65.5094 220.319 64.2758 218.253 63.5997C216.187 62.9237 213.974 62.8316 211.86 63.3338C209.745 63.836 207.813 64.9127 206.277 66.4444C204.741 67.976 203.662 69.9026 203.159 72.01L207.566 72.009C207.743 71.7922 207.941 71.5926 208.156 71.4131L209.249 70.4902L207.754 68.7284L209.694 67.0911L211.189 68.8529L214.318 66.2151L216.43 68.7004L213.219 71.4092L213.724 72.0048L215.398 72.0029L215.873 71.6008C217.226 70.4584 218.482 70.5849 219.66 71.9702L219.686 72.0008L226.024 71.9986C225.597 70.2167 224.754 68.5601 223.564 67.1635Z" fill="#1D6820"/>
<path d="M139.349 38.5783L97.5201 55.0535C97.5201 55.0535 99.6078 63.4225 109.089 71.9548L166.974 71.9249C160.506 66.3502 144.636 51.7658 139.349 38.5783Z" fill="#78B12C"/>
<path d="M102.143 57.2183L137.329 43.4207C139.896 48.0316 142.818 52.4374 146.068 56.5985C152.02 64.2194 157.582 68.9675 162.231 71.9352L164.605 71.9371C149.063 63.0533 138.276 42.585 138.138 42.3604L137.877 41.8781L100.479 56.5334L100.725 57.1148C102.756 61.8956 108.052 68.4161 111.08 71.9544L112.723 71.9563C110.058 68.8722 104.428 62.1317 102.143 57.2183Z" fill="#1D6820"/>
<path d="M133.496 62.8159C131.462 63.5306 129.639 64.7394 128.193 66.3332C126.746 67.927 125.722 69.8554 125.211 71.9441L130.261 71.9424C130.178 70.6055 130.91 69.6434 132.48 69.0911L133.975 68.5668L133.118 66.1592L135.771 65.2253L136.625 67.6322L140.905 66.1284L142.112 69.5221L137.719 71.07L138.026 71.939L150.455 71.9309C150.355 71.5268 150.232 71.1236 150.091 70.7219C148.94 67.4819 146.545 64.8289 143.433 63.3463C140.321 61.8637 136.747 61.6729 133.496 62.8159Z" fill="#1D6820"/>
<path d="M101.311 56.88L104.899 55.4749C104.899 55.4749 105.722 59.0334 102.706 59.6234L101.311 56.88Z" fill="#1D6820"/>
<path d="M134.685 43.7866L137.606 42.6431L139.263 45.5512C138.411 45.7954 137.503 45.7552 136.677 45.4365C135.85 45.1179 135.151 44.5383 134.685 43.7866Z" fill="#1D6820"/>
<path d="M241.367 52.5431C241.308 52.9179 241.139 53.2668 240.881 53.5457C240.623 53.8245 240.287 54.0208 239.917 54.1096C239.547 54.1985 239.159 54.176 238.801 54.0449C238.444 53.9138 238.133 53.6801 237.909 53.3733C237.684 53.0665 237.556 52.7004 237.54 52.3212C237.525 51.942 237.622 51.5669 237.82 51.2432C238.019 50.9195 238.309 50.6618 238.655 50.5027C239 50.3435 239.386 50.2901 239.762 50.3492C240.266 50.4284 240.719 50.7041 241.02 51.1155C241.321 51.5269 241.446 52.0405 241.367 52.5431Z" stroke="#FFD008" stroke-width="1.98425" stroke-miterlimit="10"/>
<path d="M138.98 30.5762C138.92 30.9507 138.75 31.2991 138.492 31.5773C138.233 31.8555 137.898 32.051 137.528 32.1392C137.158 32.2274 136.77 32.2043 136.412 32.0728C136.055 31.9413 135.745 31.7073 135.521 31.4004C135.297 31.0934 135.169 30.7274 135.154 30.3484C135.139 29.9694 135.236 29.5945 135.435 29.2711C135.633 28.9477 135.924 28.6902 136.269 28.5313C136.614 28.3723 136.999 28.319 137.376 28.378C137.626 28.4173 137.866 28.5054 138.082 28.6372C138.298 28.769 138.486 28.9419 138.635 29.1461C138.784 29.3503 138.891 29.5817 138.95 29.8271C139.009 30.0725 139.019 30.3271 138.98 30.5762Z" stroke="#FFD008" stroke-width="1.98425" stroke-miterlimit="10"/>
<path d="M94.9301 113.041C94.8713 113.416 94.7022 113.765 94.4442 114.044C94.1862 114.322 93.851 114.519 93.4808 114.608C93.1107 114.696 92.7223 114.674 92.3647 114.543C92.0072 114.412 91.6965 114.178 91.4721 113.871C91.2477 113.564 91.1195 113.198 91.1038 112.819C91.0881 112.44 91.1856 112.065 91.384 111.741C91.5823 111.417 91.8726 111.16 92.2182 111.001C92.5637 110.841 92.949 110.788 93.3253 110.847C93.8298 110.926 94.2823 111.202 94.5833 111.613C94.8843 112.025 95.009 112.538 94.9301 113.041Z" stroke="#FFD008" stroke-width="1.98425" stroke-miterlimit="10"/>
<path d="M205.092 32.257C205.034 32.633 204.865 32.9832 204.607 33.2633C204.349 33.5435 204.013 33.7409 203.642 33.8306C203.271 33.9204 202.881 33.8984 202.523 33.7675C202.164 33.6365 201.852 33.4026 201.627 33.0952C201.401 32.7877 201.273 32.4207 201.256 32.0405C201.24 31.6603 201.338 31.2841 201.537 30.9594C201.735 30.6347 202.026 30.3761 202.373 30.2165C202.719 30.0568 203.106 30.0032 203.483 30.0624C203.733 30.1011 203.973 30.1887 204.19 30.32C204.406 30.4513 204.595 30.6238 204.744 30.8276C204.893 31.0315 205.001 31.2627 205.061 31.5079C205.121 31.7532 205.131 32.0077 205.092 32.257V32.257Z" stroke="#FFD008" stroke-width="1.98425" stroke-miterlimit="10"/>
<path d="M90.9641 87.5531C90.906 87.9293 90.737 88.2797 90.4787 88.5599C90.2203 88.8401 89.8843 89.0374 89.513 89.127C89.1418 89.2166 88.7521 89.1943 88.3933 89.063C88.0345 88.9317 87.7228 88.6973 87.4976 88.3895C87.2724 88.0817 87.144 87.7143 87.1284 87.3339C87.1129 86.9535 87.2111 86.5772 87.4104 86.2527C87.6098 85.9282 87.9014 85.6701 88.2484 85.511C88.5953 85.3519 88.9819 85.2991 89.3593 85.3592C89.8638 85.4385 90.3164 85.7141 90.6173 86.1255C90.9183 86.537 91.0431 87.0505 90.9641 87.5531V87.5531Z" stroke="#FFD008" stroke-width="1.98425" stroke-miterlimit="10"/>
<path d="M247.573 66.9211C248.098 67.0036 248.59 66.6462 248.673 66.1229C248.755 65.5995 248.395 65.1084 247.87 65.0259C247.345 64.9434 246.852 65.3008 246.77 65.8242C246.688 66.3475 247.047 66.8386 247.573 66.9211Z" stroke="#FFD008" stroke-width="0.566929" stroke-miterlimit="10"/>
<path d="M208.396 111.136C208.365 111.323 208.28 111.497 208.151 111.636C208.021 111.774 207.853 111.872 207.668 111.916C207.483 111.959 207.289 111.948 207.111 111.882C206.933 111.816 206.778 111.698 206.666 111.545C206.554 111.391 206.491 111.208 206.483 111.019C206.475 110.83 206.524 110.642 206.624 110.481C206.723 110.319 206.868 110.191 207.041 110.111C207.213 110.032 207.406 110.005 207.594 110.035C207.846 110.076 208.072 110.214 208.223 110.421C208.373 110.627 208.435 110.884 208.396 111.136Z" stroke="#FFD008" stroke-width="0.566929" stroke-miterlimit="10"/>
<path d="M149.704 38.1519C149.675 38.3393 149.59 38.5138 149.461 38.6532C149.332 38.7926 149.165 38.8908 148.98 38.9352C148.795 38.9796 148.6 38.9684 148.422 38.9028C148.243 38.8373 148.088 38.7204 147.975 38.567C147.863 38.4136 147.799 38.2306 147.791 38.041C147.783 37.8514 147.832 37.6638 147.931 37.502C148.03 37.3401 148.176 37.2113 148.348 37.1317C148.521 37.0521 148.714 37.0254 148.902 37.055C149.154 37.0946 149.38 37.2324 149.531 37.4381C149.681 37.6438 149.744 37.9006 149.704 38.1519Z" stroke="#FFD008" stroke-width="0.566929" stroke-miterlimit="10"/>
<path d="M257.705 119.232C257.582 119.376 257.418 119.481 257.235 119.533C257.052 119.584 256.857 119.58 256.676 119.522C256.495 119.463 256.335 119.352 256.217 119.203C256.099 119.054 256.028 118.874 256.012 118.685C255.997 118.496 256.039 118.306 256.131 118.141C256.224 117.975 256.364 117.841 256.534 117.755C256.703 117.668 256.895 117.634 257.084 117.656C257.273 117.679 257.451 117.756 257.596 117.88C257.79 118.045 257.909 118.281 257.93 118.534C257.95 118.787 257.869 119.038 257.705 119.232V119.232Z" stroke="#FFD008" stroke-width="0.566929" stroke-miterlimit="10"/>
<path d="M103.887 49.7817C103.858 49.9691 103.773 50.1435 103.644 50.283C103.515 50.4224 103.348 50.5205 103.163 50.5649C102.978 50.6094 102.784 50.5981 102.605 50.5326C102.426 50.4671 102.271 50.3502 102.158 50.1968C102.046 50.0434 101.982 49.8603 101.974 49.6707C101.966 49.4812 102.015 49.2936 102.114 49.1317C102.214 48.9699 102.359 48.841 102.531 48.7615C102.704 48.6819 102.897 48.6552 103.085 48.6847C103.337 48.7243 103.564 48.8622 103.714 49.0679C103.864 49.2736 103.927 49.5304 103.887 49.7817Z" stroke="#FFD008" stroke-width="0.566929" stroke-miterlimit="10"/>
<path d="M237.623 82.4125C237.597 82.4067 237.572 82.392 237.555 82.3708C237.539 82.348 237.533 82.3202 237.537 82.293C237.542 82.2659 237.556 82.2413 237.578 82.2243L239.468 80.8528C239.479 80.8441 239.491 80.8377 239.505 80.8341C239.518 80.8305 239.532 80.8298 239.546 80.832C239.56 80.8342 239.573 80.8392 239.585 80.8467C239.597 80.8543 239.607 80.8642 239.615 80.8759C239.623 80.8863 239.63 80.8986 239.633 80.9117C239.637 80.9248 239.638 80.9385 239.636 80.952C239.634 80.9654 239.629 80.9783 239.621 80.9897C239.614 81.001 239.604 81.0107 239.592 81.018L237.71 82.3952C237.685 82.4116 237.654 82.4177 237.623 82.4125Z" fill="white"/>
<path d="M239.258 82.6691C239.231 82.6633 239.207 82.6486 239.189 82.6274L237.811 80.7384C237.796 80.7163 237.79 80.6893 237.794 80.6629C237.798 80.6364 237.812 80.6126 237.833 80.5962C237.844 80.5875 237.857 80.5812 237.87 80.5776C237.884 80.574 237.898 80.5733 237.912 80.5754C237.926 80.5776 237.939 80.5826 237.951 80.5902C237.963 80.5978 237.973 80.6077 237.98 80.6193L239.359 82.5041C239.368 82.5149 239.374 82.5275 239.378 82.541C239.381 82.5545 239.382 82.5686 239.38 82.5824C239.378 82.5962 239.373 82.6093 239.365 82.6211C239.358 82.6328 239.348 82.6428 239.336 82.6505C239.313 82.666 239.285 82.6726 239.258 82.6691Z" fill="white"/>
<path d="M154.899 118.612C154.871 118.607 154.847 118.592 154.83 118.57C154.821 118.559 154.815 118.547 154.811 118.533C154.808 118.52 154.807 118.506 154.809 118.492C154.811 118.478 154.816 118.465 154.824 118.453C154.831 118.442 154.841 118.432 154.853 118.424L156.744 117.048C156.755 117.04 156.767 117.034 156.781 117.031C156.794 117.028 156.808 117.027 156.822 117.029C156.835 117.031 156.849 117.036 156.86 117.043C156.872 117.051 156.882 117.06 156.891 117.071C156.899 117.082 156.905 117.095 156.908 117.108C156.911 117.122 156.912 117.136 156.91 117.149C156.907 117.163 156.903 117.176 156.895 117.188C156.888 117.199 156.879 117.209 156.868 117.218L154.96 118.591C154.942 118.603 154.921 118.611 154.899 118.612Z" fill="white"/>
<path d="M156.533 118.869C156.506 118.863 156.482 118.848 156.464 118.827L155.083 116.959C155.074 116.949 155.068 116.936 155.064 116.922C155.061 116.909 155.06 116.895 155.062 116.881C155.064 116.867 155.069 116.854 155.077 116.842C155.084 116.831 155.094 116.821 155.106 116.813C155.129 116.798 155.157 116.792 155.184 116.796C155.211 116.8 155.236 116.814 155.253 116.836L156.631 118.725C156.647 118.748 156.653 118.776 156.648 118.803C156.644 118.83 156.63 118.855 156.608 118.872C156.583 118.878 156.557 118.877 156.533 118.869Z" fill="white"/>
<path d="M91.241 74.0252C91.2279 74.0236 91.2152 74.0192 91.2041 74.012C91.1929 74.0049 91.1835 73.9954 91.1766 73.9842C91.1678 73.9737 91.1614 73.9615 91.1578 73.9484C91.1542 73.9352 91.1534 73.9215 91.1555 73.908C91.1576 73.8946 91.1626 73.8818 91.1701 73.8704C91.1775 73.859 91.1874 73.8493 91.1989 73.842L93.1068 72.4689C93.1294 72.4525 93.1575 72.4458 93.1851 72.4501C93.2126 72.4544 93.2374 72.4695 93.2538 72.492C93.2703 72.5144 93.2771 72.5425 93.2728 72.57C93.2684 72.5974 93.2534 72.6221 93.2308 72.6384L91.3365 74.0093C91.3237 74.0205 91.3079 74.028 91.2911 74.0308C91.2742 74.0336 91.2568 74.0317 91.241 74.0252Z" fill="white"/>
<path d="M92.8793 74.2824C92.8655 74.2808 92.8522 74.2763 92.8403 74.2691C92.8284 74.2619 92.8183 74.2522 92.8105 74.2407L91.4318 72.356C91.423 72.3451 91.4166 72.3325 91.413 72.319C91.4094 72.3055 91.4087 72.2915 91.4108 72.2777C91.413 72.2639 91.418 72.2507 91.4256 72.239C91.4331 72.2273 91.4431 72.2172 91.4548 72.2095C91.4769 72.1944 91.504 72.1883 91.5306 72.1924C91.5571 72.1966 91.581 72.2107 91.5975 72.2319L92.9818 74.1088C92.9927 74.1254 92.9986 74.1449 92.9988 74.1648C92.9989 74.1846 92.9934 74.2042 92.9829 74.221C92.9723 74.2379 92.9572 74.2514 92.9392 74.26C92.9212 74.2686 92.9011 74.2719 92.8813 74.2695L92.8793 74.2824Z" fill="white"/>
<path d="M218.877 106.634C218.85 106.628 218.826 106.613 218.808 106.592C218.793 106.569 218.787 106.542 218.791 106.514C218.795 106.487 218.809 106.463 218.831 106.446L220.721 105.074C220.732 105.065 220.745 105.059 220.758 105.055C220.772 105.052 220.786 105.051 220.8 105.053C220.814 105.055 220.827 105.06 220.839 105.068C220.85 105.076 220.86 105.086 220.868 105.097C220.883 105.119 220.889 105.146 220.885 105.173C220.881 105.199 220.867 105.223 220.846 105.239L218.955 106.615C218.932 106.63 218.904 106.637 218.877 106.634Z" fill="white"/>
<path d="M220.511 106.89C220.484 106.885 220.46 106.87 220.443 106.849L219.064 104.96C219.049 104.938 219.043 104.911 219.047 104.884C219.051 104.858 219.066 104.834 219.087 104.818C219.098 104.809 219.11 104.802 219.124 104.799C219.137 104.795 219.152 104.795 219.165 104.797C219.179 104.799 219.192 104.804 219.204 104.812C219.216 104.819 219.226 104.829 219.234 104.841L220.604 106.724C220.619 106.747 220.625 106.775 220.621 106.802C220.617 106.829 220.603 106.853 220.581 106.87C220.56 106.884 220.536 106.891 220.511 106.89Z" fill="white"/>
<path d="M115.769 119.195C115.755 119.193 115.742 119.188 115.73 119.181C115.718 119.174 115.708 119.164 115.7 119.153C115.684 119.13 115.678 119.102 115.682 119.075C115.687 119.048 115.701 119.023 115.723 119.006L117.613 117.635C117.636 117.62 117.664 117.613 117.691 117.618C117.718 117.622 117.743 117.636 117.76 117.658C117.769 117.669 117.775 117.681 117.779 117.695C117.782 117.708 117.783 117.722 117.781 117.736C117.779 117.75 117.774 117.763 117.766 117.775C117.758 117.787 117.748 117.797 117.737 117.804L115.845 119.185C115.834 119.191 115.821 119.196 115.808 119.197C115.795 119.199 115.781 119.198 115.769 119.195Z" fill="white"/>
<path d="M117.403 119.451C117.39 119.449 117.376 119.445 117.365 119.437C117.353 119.43 117.343 119.421 117.335 119.41L115.956 117.525C115.948 117.514 115.942 117.501 115.939 117.488C115.935 117.474 115.935 117.46 115.937 117.447C115.939 117.433 115.944 117.42 115.951 117.408C115.958 117.397 115.968 117.386 115.979 117.378C115.99 117.37 116.003 117.364 116.016 117.361C116.029 117.358 116.043 117.357 116.057 117.36C116.071 117.362 116.084 117.366 116.096 117.374C116.107 117.381 116.118 117.39 116.126 117.401L117.505 119.286C117.513 119.297 117.52 119.31 117.523 119.323C117.527 119.337 117.528 119.351 117.525 119.364C117.523 119.378 117.518 119.391 117.511 119.403C117.503 119.415 117.493 119.425 117.482 119.433C117.471 119.441 117.458 119.447 117.444 119.45C117.431 119.454 117.417 119.454 117.403 119.451Z" fill="white"/>
<path d="M123.109 34.9165C123.095 34.9149 123.082 34.9104 123.07 34.9032C123.058 34.896 123.048 34.8863 123.04 34.8748C123.031 34.8639 123.025 34.8513 123.021 34.8379C123.018 34.8244 123.017 34.8103 123.019 34.7965C123.021 34.7827 123.026 34.7695 123.034 34.7578C123.041 34.7461 123.051 34.7361 123.063 34.7284L124.953 33.3568C124.976 33.3405 125.004 33.3337 125.031 33.338C125.059 33.3424 125.084 33.3574 125.1 33.3799C125.116 33.4024 125.123 33.4305 125.119 33.4579C125.115 33.4854 125.1 33.51 125.077 33.5264L123.187 34.8979C123.176 34.9062 123.163 34.9121 123.15 34.9153C123.136 34.9185 123.123 34.9189 123.109 34.9165Z" fill="white"/>
<path d="M124.743 35.1731C124.73 35.1712 124.717 35.1666 124.705 35.1594C124.693 35.1522 124.683 35.1427 124.675 35.1314L123.296 33.2467C123.287 33.2358 123.281 33.2232 123.277 33.2097C123.274 33.1962 123.273 33.1821 123.275 33.1684C123.277 33.1546 123.282 33.1414 123.29 33.1297C123.297 33.1179 123.307 33.1079 123.319 33.1002C123.342 33.0849 123.37 33.0788 123.397 33.083C123.424 33.0873 123.449 33.1017 123.466 33.1233L124.845 35.008C124.86 35.0309 124.866 35.0586 124.862 35.0858C124.858 35.113 124.843 35.1375 124.822 35.1545C124.811 35.1628 124.798 35.1687 124.785 35.1719C124.771 35.1751 124.757 35.1755 124.743 35.1731Z" fill="white"/>
<path d="M205.206 40.6915C205.192 40.6894 205.179 40.6846 205.167 40.6774C205.156 40.6703 205.145 40.6609 205.137 40.6498C205.128 40.6389 205.122 40.6263 205.118 40.6128C205.115 40.5993 205.114 40.5852 205.116 40.5714C205.118 40.5577 205.123 40.5445 205.131 40.5328C205.138 40.521 205.148 40.511 205.16 40.5033L207.051 39.1275C207.073 39.1111 207.101 39.1044 207.129 39.1087C207.157 39.113 207.181 39.1281 207.198 39.1506C207.214 39.173 207.221 39.2011 207.217 39.2286C207.212 39.256 207.197 39.2806 207.175 39.297L205.284 40.6728C205.261 40.6876 205.233 40.6942 205.206 40.6915Z" fill="white"/>
<path d="M206.84 40.948C206.813 40.9422 206.789 40.9276 206.771 40.9063L205.393 39.0173C205.384 39.0064 205.378 38.9938 205.374 38.9803C205.371 38.9669 205.37 38.9528 205.372 38.939C205.374 38.9252 205.379 38.912 205.387 38.9003C205.395 38.8886 205.404 38.8785 205.416 38.8709C205.439 38.8555 205.467 38.8494 205.494 38.8537C205.521 38.858 205.546 38.8723 205.563 38.8939L206.941 40.783C206.957 40.8058 206.963 40.8336 206.959 40.8607C206.954 40.8879 206.94 40.9124 206.918 40.9294C206.895 40.9442 206.867 40.9508 206.84 40.948Z" fill="white"/>
<path d="M157.53 60.4987C157.53 60.4987 169.041 53.479 181.586 61.0273" stroke="#FFD008" stroke-miterlimit="10" stroke-dasharray="2.83 2.83"/>
<path d="M248.741 71.3237L259.817 63.8032L263.6 70.3995L248.741 71.3237Z" fill="#FFD008"/>
<path d="M248.742 71.3238L261.767 67.2078L263.6 70.3996L248.742 71.3238Z" fill="#D8B10F"/>
<path d="M248.479 72.995L258.653 75.2543L256.134 80.3226L248.479 72.995Z" fill="#FFD008"/>
<path d="M20.6193 133.805L15.5789 142.787L11.0777 139.304L20.6193 133.805Z" fill="#FFD008"/>
<path d="M20.6199 133.805L13.258 140.988L11.0784 139.304L20.6199 133.805Z" fill="#D8B10F"/>
<path d="M20.2866 132.525L12.8767 134.223L13.0046 129.78L20.2866 132.525Z" fill="#FFD008"/>
<path d="M39.9309 154.357L30.9662 158.496L33.5589 163.767L39.9309 154.357Z" fill="#FFD008"/>
<path d="M39.9307 154.356L32.3051 161.214L33.5587 163.766L39.9307 154.356Z" fill="#D8B10F"/>
<path d="M41.0645 154.886L38.4862 162.546L42.5968 163.018L41.0645 154.886Z" fill="#FFD008"/>
<path d="M313.883 123.165C313.883 123.165 323.006 142.719 308.298 155.18C297.844 164.034 285.203 160.905 278.781 158.371" stroke="#FFD008" stroke-miterlimit="10" stroke-dasharray="2.83 2.83"/>
<path d="M274.566 156.384L281.572 156.453L279.123 158.44L279.521 161.705L274.566 156.384Z" fill="#FFD008"/>
</svg>
