<svg width="15" height="15" viewBox="0 0 15 15" fill="none" xmlns="http://www.w3.org/2000/svg">
<path d="M14.7233 0.779435C14.479 0.460281 14.1002 0.277344 13.6836 0.277344C13.4146 0.277344 13.1359 0.352207 12.8551 0.499682L0.896617 6.76963C0.0466645 7.216 -0.0124382 7.88808 0.00163389 8.15601C0.0151431 8.42563 0.145169 9.08702 1.03678 9.44107L2.565 10.0456C2.85489 10.1604 3.17911 10.2195 3.52809 10.2195C3.58326 10.2195 3.63617 10.2122 3.69077 10.2094C3.66994 10.2364 3.64461 10.2573 3.62547 10.2854C3.34065 10.7115 3.32658 11.289 3.58438 11.911C3.58832 11.9217 3.59226 11.9307 3.5962 11.9397C4.0482 12.9411 4.55085 14.0713 4.61164 14.2284C4.76137 14.619 5.143 14.8881 5.56179 14.8881C6.20685 14.8881 6.39823 14.5774 7.45364 12.8595C7.53582 12.7334 7.71876 12.4407 7.74971 12.068C7.87299 12.1181 7.98894 12.1643 8.08801 12.2043L9.78116 12.8944C10.1206 13.0328 10.4178 13.155 10.5743 13.2197C10.6227 13.2495 10.6739 13.2749 10.7274 13.2968C10.8467 13.3441 10.9739 13.3683 11.1017 13.3683C11.8717 13.3683 12.0563 12.7013 12.1554 12.3439C12.2044 12.1671 12.2719 11.9223 12.3445 11.6521L14.927 2.163C15.1218 1.44645 14.8826 0.988828 14.7233 0.779435ZM6.60087 12.3191C6.60087 12.3191 5.64284 13.8788 5.56123 13.8788C5.55898 13.8788 5.55785 13.8777 5.55672 13.8755C5.46272 13.6227 4.51595 11.5249 4.51595 11.5249C4.34146 11.1044 4.37298 10.7441 4.673 10.7441C4.73885 10.7441 4.81766 10.7616 4.90997 10.7999L5.6451 11.1821C5.7678 11.2659 5.90177 11.3386 6.04925 11.3965L6.0864 11.4106L6.15563 11.4455C6.72358 11.7461 6.90426 11.8547 6.60087 12.3191ZM13.9532 1.89732L11.3719 11.3864C11.2261 11.9211 11.1045 12.3585 11.1022 12.3585C11.1 12.3574 11.0972 12.3472 11.0972 12.3455C11.0972 12.3422 10.6761 12.1699 10.1617 11.9594L8.46739 11.2693C7.95292 11.0611 7.10915 10.7239 6.59187 10.5246L6.50631 10.4903L6.18997 10.3259C5.87644 10.0856 5.84886 9.68931 6.16407 9.35326L11.4056 3.74076C11.6162 3.51617 11.6955 3.40022 11.6499 3.40022C11.6139 3.40022 11.4974 3.47508 11.3026 3.62762L4.67075 8.85905C4.38142 9.08477 3.94181 9.21086 3.52866 9.21086C3.31701 9.21086 3.11156 9.17708 2.9365 9.10785L1.4094 8.50387C0.89324 8.29955 0.873539 7.92242 1.36494 7.66349L13.3245 1.39241C13.4624 1.32037 13.5834 1.28659 13.6836 1.28659C13.9409 1.28659 14.0579 1.51175 13.9532 1.89732Z" fill="#F9F9F9"/>
</svg>
