<svg width="15" height="13" viewBox="0 0 15 13" fill="none" xmlns="http://www.w3.org/2000/svg">
<path d="M15 1.68359C14.4375 1.96484 13.875 2.15234 13.2188 2.15234C13.875 1.77734 14.3438 1.12109 14.625 0.464844C13.9688 0.839844 13.4062 1.12109 12.6562 1.21484C12.0938 0.558594 11.25 0.277344 10.4062 0.277344C8.625 0.277344 7.3125 1.58984 7.3125 3.27734C7.3125 3.55859 7.3125 3.74609 7.40625 3.93359C4.78125 3.83984 2.53125 2.62109 1.03125 0.839844C0.75 1.30859 0.65625 1.87109 0.65625 2.33984C0.65625 3.46484 1.21875 4.40234 2.0625 4.87109C1.59375 4.87109 1.125 4.77734 0.65625 4.49609C0.65625 4.49609 0.65625 4.49609 0.65625 4.58984C0.65625 6.08984 1.78125 7.30859 3.09375 7.68359C2.8125 7.68359 2.53125 7.68359 2.25 7.68359C2.0625 7.68359 1.875 7.68359 1.6875 7.58984C2.0625 8.80859 3.1875 9.65234 4.59375 9.74609C3.46875 10.5898 2.25 11.0586 0.75 11.0586C0.46875 11.0586 0.28125 11.0586 0 11.0586C1.40625 11.9961 3 12.4648 4.6875 12.4648C10.3125 12.4648 13.4062 7.77734 13.4062 3.74609C13.4062 3.65234 13.4062 3.46484 13.4062 3.37109C14.0625 2.80859 14.625 2.33984 15 1.68359Z" fill="#F9F9F9"/>
</svg>
