<svg width="45" height="36" viewBox="0 0 45 36" fill="none" xmlns="http://www.w3.org/2000/svg">
<path d="M6.75 15.75C9.23203 15.75 11.25 13.732 11.25 11.25C11.25 8.76797 9.23203 6.75 6.75 6.75C4.26797 6.75 2.25 8.76797 2.25 11.25C2.25 13.732 4.26797 15.75 6.75 15.75ZM38.25 15.75C40.732 15.75 42.75 13.732 42.75 11.25C42.75 8.76797 40.732 6.75 38.25 6.75C35.768 6.75 33.75 8.76797 33.75 11.25C33.75 13.732 35.768 15.75 38.25 15.75ZM40.5 18H36C34.7625 18 33.6445 18.4992 32.8289 19.3078C35.6625 20.8617 37.6734 23.6672 38.1094 27H42.75C43.9945 27 45 25.9945 45 24.75V22.5C45 20.018 42.982 18 40.5 18ZM22.5 18C26.8523 18 30.375 14.4773 30.375 10.125C30.375 5.77266 26.8523 2.25 22.5 2.25C18.1477 2.25 14.625 5.77266 14.625 10.125C14.625 14.4773 18.1477 18 22.5 18ZM27.9 20.25H27.3164C25.8539 20.9531 24.2297 21.375 22.5 21.375C20.7703 21.375 19.1531 20.9531 17.6836 20.25H17.1C12.6281 20.25 9 23.8781 9 28.35V30.375C9 32.2383 10.5117 33.75 12.375 33.75H32.625C34.4883 33.75 36 32.2383 36 30.375V28.35C36 23.8781 32.3719 20.25 27.9 20.25ZM12.1711 19.3078C11.3555 18.4992 10.2375 18 9 18H4.5C2.01797 18 0 20.018 0 22.5V24.75C0 25.9945 1.00547 27 2.25 27H6.88359C7.32656 23.6672 9.3375 20.8617 12.1711 19.3078Z" fill="#FEB511"/>
</svg>
