<svg width="54" height="42" viewBox="0 0 54 42" fill="none" xmlns="http://www.w3.org/2000/svg">
<path d="M44.0719 18.6844C44.0719 18.6844 44.7844 22.1719 44.9437 22.9031H41.8125C42.1219 22.0687 43.3125 18.825 43.3125 18.825C43.2938 18.8531 43.6219 17.9719 43.8094 17.4281L44.0719 18.6844ZM54 4.5V37.5C54 39.9844 51.9844 42 49.5 42H4.5C2.01562 42 0 39.9844 0 37.5V4.5C0 2.01562 2.01562 0 4.5 0H49.5C51.9844 0 54 2.01562 54 4.5ZM14.2969 28.05L20.2219 13.5H16.2375L12.5531 23.4375L12.15 21.4219L10.8375 14.7281C10.6219 13.8 9.95625 13.5375 9.13125 13.5H3.06563L3 13.7906C4.48125 14.1656 5.80312 14.7094 6.95625 15.3937L10.3125 28.05H14.2969ZM23.1469 28.0687L25.5094 13.5H21.7406L19.3875 28.0687H23.1469ZM36.2625 23.3063C36.2812 21.6469 35.2687 20.3813 33.1031 19.3406C31.7812 18.675 30.975 18.225 30.975 17.5406C30.9937 16.9219 31.6594 16.2844 33.1406 16.2844C34.3688 16.2563 35.2687 16.5469 35.9437 16.8375L36.2812 16.9969L36.7969 13.8469C36.0563 13.5562 34.875 13.2281 33.4219 13.2281C29.7 13.2281 27.0844 15.2156 27.0656 18.0469C27.0375 20.1375 28.9406 21.3 30.3656 22.0031C31.8187 22.7156 32.3156 23.1844 32.3156 23.8125C32.2969 24.7875 31.1344 25.2375 30.0563 25.2375C28.5563 25.2375 27.75 25.0031 26.5219 24.4594L26.025 24.225L25.5 27.4969C26.3813 27.9 28.0125 28.2563 29.7 28.275C33.6562 28.2844 36.2344 26.325 36.2625 23.3063ZM49.5 28.0687L46.4625 13.5H43.5469C42.6469 13.5 41.9625 13.7625 41.5781 14.7094L35.9812 28.0687H39.9375C39.9375 28.0687 40.5844 26.2688 40.725 25.8844H45.5625C45.675 26.4 46.0125 28.0687 46.0125 28.0687H49.5Z" fill="#FFCA19"/>
</svg>
