<svg width="15" height="9" viewBox="0 0 15 9" fill="none" xmlns="http://www.w3.org/2000/svg">
<path d="M7.34567 8.55166C7.34567 8.55166 8.0143 8.55166 8.26503 8.55166C8.51577 8.55166 8.76651 8.38451 8.76651 8.05019C8.85009 7.71587 8.76651 6.88008 9.26798 6.71293C9.85303 6.54577 10.5217 7.88303 11.2739 8.30093C11.8589 8.63524 12.2768 8.63524 12.2768 8.63524H14.2827C14.2827 8.63524 15.3692 8.55166 14.8678 7.71587C14.7842 7.6323 14.617 7.13082 13.3634 6.04429C12.1097 4.87419 12.2768 5.12493 13.7812 3.11903C14.7006 1.94892 15.0349 1.19671 14.9514 0.862397C14.8678 0.528081 14.1156 0.61166 14.1156 0.61166C14.1156 0.61166 12.444 0.61166 11.8589 0.61166C11.6918 0.61166 11.5246 0.61166 11.3575 0.945976C11.0231 2.11608 9.6023 4.45629 9.01725 4.37271C8.43219 4.28914 8.68293 2.4504 8.68293 1.28029C8.68293 0.444502 8.34861 0.277344 7.09493 0.277344C6.25914 0.277344 5.59051 0.277344 5.25619 0.444502C5.17261 0.528081 5.00545 0.778818 5.08903 0.778818C5.25619 0.778818 5.59051 0.862397 5.75766 1.11313C6.0084 1.44745 6.0084 2.11608 6.0084 2.11608C6.0084 2.11608 6.09198 4.0384 5.75766 4.28914C5.25619 4.62345 3.83535 2.4504 3.33387 0.945976C3.16672 0.695239 3.08314 0.528081 2.74882 0.528081C2.24735 0.528081 0.575766 0.528081 0.575766 0.528081C0.575766 0.528081 0.24145 0.528081 0.0742924 0.61166C-0.0928656 0.695239 0.0742924 0.945976 0.0742924 0.945976C0.0742924 0.945976 1.74587 4.79061 3.66819 6.71293C5.33977 8.63524 7.34567 8.55166 7.34567 8.55166Z" fill="#F9F9F9"/>
</svg>
